<svg width="36" height="36" viewBox="0 0 36 36" fill="none" xmlns="http://www.w3.org/2000/svg">
<circle cx="18" cy="18" r="17.5" stroke="#2C76C9"/>
<path d="M22.498 22.5156V24H13.1914V22.7012L17.8496 17.5156C18.4225 16.8776 18.8652 16.3372 19.1777 15.8945C19.4967 15.4453 19.7181 15.0449 19.8418 14.6934C19.972 14.3353 20.0371 13.9707 20.0371 13.5996C20.0371 13.1309 19.9395 12.7077 19.7441 12.3301C19.5553 11.946 19.2754 11.64 18.9043 11.4121C18.5332 11.1842 18.084 11.0703 17.5566 11.0703C16.9251 11.0703 16.3978 11.194 15.9746 11.4414C15.5579 11.6823 15.2454 12.0208 15.0371 12.457C14.8288 12.8932 14.7246 13.3945 14.7246 13.9609H12.918C12.918 13.1602 13.0938 12.4277 13.4453 11.7637C13.7969 11.0996 14.3177 10.5723 15.0078 10.1816C15.6979 9.78451 16.5475 9.58594 17.5566 9.58594C18.4551 9.58594 19.2233 9.74544 19.8613 10.0645C20.4993 10.377 20.9876 10.8197 21.3262 11.3926C21.6712 11.959 21.8438 12.623 21.8438 13.3848C21.8438 13.8014 21.7721 14.2246 21.6289 14.6543C21.4922 15.0775 21.3001 15.5007 21.0527 15.9238C20.8118 16.347 20.5286 16.7637 20.2031 17.1738C19.8841 17.584 19.5423 17.9876 19.1777 18.3848L15.3691 22.5156H22.498Z" fill="#2C76C9"/>
</svg>
