<svg width="36" height="36" viewBox="0 0 36 36" fill="none" xmlns="http://www.w3.org/2000/svg">
<circle cx="18" cy="18" r="17.5" stroke="#DADADA"/>
<path d="M15.8184 16.002H17.1074C17.7389 16.002 18.2598 15.8978 18.6699 15.6895C19.0866 15.4746 19.3958 15.1849 19.5977 14.8203C19.806 14.4492 19.9102 14.0326 19.9102 13.5703C19.9102 13.0234 19.819 12.5645 19.6367 12.1934C19.4544 11.8223 19.181 11.5423 18.8164 11.3535C18.4518 11.1647 17.9896 11.0703 17.4297 11.0703C16.9219 11.0703 16.4727 11.1712 16.082 11.373C15.6979 11.5684 15.3952 11.8483 15.1738 12.2129C14.959 12.5775 14.8516 13.0072 14.8516 13.502H13.0449C13.0449 12.7793 13.2272 12.1217 13.5918 11.5293C13.9564 10.9368 14.4674 10.4648 15.125 10.1133C15.7891 9.76172 16.5573 9.58594 17.4297 9.58594C18.2891 9.58594 19.041 9.73893 19.6855 10.0449C20.3301 10.3444 20.8314 10.7936 21.1895 11.3926C21.5475 11.985 21.7266 12.724 21.7266 13.6094C21.7266 13.9674 21.6419 14.3516 21.4727 14.7617C21.3099 15.1654 21.0527 15.543 20.7012 15.8945C20.3561 16.2461 19.9069 16.5358 19.3535 16.7637C18.8001 16.985 18.1361 17.0957 17.3613 17.0957H15.8184V16.002ZM15.8184 17.4863V16.4023H17.3613C18.2663 16.4023 19.015 16.5098 19.6074 16.7246C20.1999 16.9395 20.6654 17.2259 21.0039 17.584C21.349 17.9421 21.5898 18.3359 21.7266 18.7656C21.8698 19.1888 21.9414 19.612 21.9414 20.0352C21.9414 20.6992 21.8275 21.2884 21.5996 21.8027C21.3783 22.3171 21.0625 22.7533 20.6523 23.1113C20.2487 23.4694 19.7734 23.7396 19.2266 23.9219C18.6797 24.1042 18.084 24.1953 17.4395 24.1953C16.821 24.1953 16.2383 24.1074 15.6914 23.9316C15.151 23.7559 14.6725 23.502 14.2559 23.1699C13.8392 22.8314 13.5137 22.418 13.2793 21.9297C13.0449 21.4349 12.9277 20.8717 12.9277 20.2402H14.7344C14.7344 20.735 14.8418 21.168 15.0566 21.5391C15.278 21.9102 15.5905 22.1999 15.9941 22.4082C16.4043 22.61 16.8861 22.7109 17.4395 22.7109C17.9928 22.7109 18.4681 22.6165 18.8652 22.4277C19.2689 22.2324 19.5781 21.9395 19.793 21.5488C20.0143 21.1582 20.125 20.6667 20.125 20.0742C20.125 19.4818 20.0013 18.9967 19.7539 18.6191C19.5065 18.235 19.1549 17.9518 18.6992 17.7695C18.25 17.5807 17.7194 17.4863 17.1074 17.4863H15.8184Z" fill="#676D74"/>
</svg>
