<svg width="36" height="36" viewBox="0 0 36 36" fill="none" xmlns="http://www.w3.org/2000/svg">
<circle cx="18" cy="18" r="17.5" stroke="#2C76C9"/>
<path d="M15.4668 17.2324L14.0215 16.8613L14.7344 9.78125H22.0293V11.4512H16.2676L15.8379 15.3184C16.0983 15.1686 16.4271 15.0286 16.8242 14.8984C17.2279 14.7682 17.6901 14.7031 18.2109 14.7031C18.8685 14.7031 19.4577 14.8171 19.9785 15.0449C20.4993 15.2663 20.9421 15.5853 21.3066 16.002C21.6777 16.4186 21.9609 16.9199 22.1562 17.5059C22.3516 18.0918 22.4492 18.7461 22.4492 19.4688C22.4492 20.1523 22.3548 20.7806 22.166 21.3535C21.9837 21.9264 21.707 22.4277 21.3359 22.8574C20.9648 23.2806 20.4961 23.6094 19.9297 23.8438C19.3698 24.0781 18.709 24.1953 17.9473 24.1953C17.3743 24.1953 16.8307 24.1172 16.3164 23.9609C15.8086 23.7982 15.3529 23.554 14.9492 23.2285C14.5521 22.8965 14.2266 22.4863 13.9727 21.998C13.7253 21.5033 13.569 20.9238 13.5039 20.2598H15.2227C15.3008 20.7936 15.457 21.2428 15.6914 21.6074C15.9258 21.972 16.2318 22.2487 16.6094 22.4375C16.9935 22.6198 17.4395 22.7109 17.9473 22.7109C18.377 22.7109 18.7578 22.6361 19.0898 22.4863C19.4219 22.3366 19.7018 22.1217 19.9297 21.8418C20.1576 21.5618 20.3301 21.2233 20.4473 20.8262C20.571 20.429 20.6328 19.9831 20.6328 19.4883C20.6328 19.0391 20.571 18.6224 20.4473 18.2383C20.3236 17.8542 20.138 17.5189 19.8906 17.2324C19.6497 16.946 19.3535 16.7246 19.002 16.5684C18.6504 16.4056 18.2467 16.3242 17.791 16.3242C17.1855 16.3242 16.7266 16.4056 16.4141 16.5684C16.1081 16.7311 15.7923 16.9525 15.4668 17.2324Z" fill="#2C76C9"/>
</svg>
