<svg width="36" height="36" viewBox="0 0 36 36" fill="none" xmlns="http://www.w3.org/2000/svg">
<circle cx="18" cy="18" r="17.5" stroke="#DADADA"/>
<path d="M20.1152 9.76172H20.2715V11.2949H20.1152C19.1582 11.2949 18.3574 11.4512 17.7129 11.7637C17.0684 12.0697 16.5573 12.4831 16.1797 13.0039C15.8021 13.5182 15.5286 14.0977 15.3594 14.7422C15.1966 15.3867 15.1152 16.041 15.1152 16.7051V18.7949C15.1152 19.4264 15.1901 19.9863 15.3398 20.4746C15.4896 20.9564 15.6947 21.3633 15.9551 21.6953C16.2155 22.0273 16.5085 22.278 16.834 22.4473C17.166 22.6165 17.5111 22.7012 17.8691 22.7012C18.2858 22.7012 18.6569 22.623 18.9824 22.4668C19.3079 22.304 19.5814 22.0794 19.8027 21.793C20.0306 21.5 20.2031 21.1549 20.3203 20.7578C20.4375 20.3607 20.4961 19.9245 20.4961 19.4492C20.4961 19.026 20.444 18.6191 20.3398 18.2285C20.2357 17.8314 20.0762 17.4798 19.8613 17.1738C19.6465 16.8613 19.3763 16.6172 19.0508 16.4414C18.7318 16.2591 18.3509 16.168 17.9082 16.168C17.4069 16.168 16.9382 16.2917 16.502 16.5391C16.0723 16.7799 15.7174 17.099 15.4375 17.4961C15.1641 17.8867 15.0078 18.3132 14.9688 18.7754L14.0117 18.7656C14.1029 18.0365 14.2721 17.4147 14.5195 16.9004C14.7734 16.3796 15.0859 15.9564 15.457 15.6309C15.8346 15.2988 16.2546 15.0579 16.7168 14.9082C17.1855 14.752 17.6803 14.6738 18.2012 14.6738C18.9108 14.6738 19.5228 14.8073 20.0371 15.0742C20.5514 15.3411 20.9746 15.6992 21.3066 16.1484C21.6387 16.5911 21.8828 17.0924 22.0391 17.6523C22.2018 18.2057 22.2832 18.7754 22.2832 19.3613C22.2832 20.0319 22.1888 20.6602 22 21.2461C21.8112 21.832 21.528 22.3464 21.1504 22.7891C20.7793 23.2318 20.3203 23.5768 19.7734 23.8242C19.2266 24.0716 18.5918 24.1953 17.8691 24.1953C17.1009 24.1953 16.4303 24.0391 15.8574 23.7266C15.2845 23.4076 14.8092 22.9844 14.4316 22.457C14.054 21.9297 13.7708 21.3438 13.582 20.6992C13.3932 20.0547 13.2988 19.4004 13.2988 18.7363V17.8867C13.2988 16.8841 13.3997 15.901 13.6016 14.9375C13.8034 13.974 14.1517 13.1016 14.6465 12.3203C15.1478 11.5391 15.8411 10.9173 16.7266 10.4551C17.612 9.99284 18.7415 9.76172 20.1152 9.76172Z" fill="#676D74"/>
</svg>
