<svg width="18" height="17" viewBox="0 0 18 17" fill="none" xmlns="http://www.w3.org/2000/svg">
<path fill-rule="evenodd" clip-rule="evenodd" d="M1 8.81641C1 9.09255 1.22386 9.31641 1.5 9.31641L11.2929 9.31641L7.14645 13.4629C6.95118 13.6581 6.95118 13.9747 7.14645 14.17C7.34171 14.3652 7.65829 14.3652 7.85355 14.17L12.8536 9.16996C12.9504 9.07309 12.9992 8.94636 13 8.81941L13 8.81641L13 8.81341C12.9996 8.7467 12.9861 8.6831 12.9621 8.62501C12.9377 8.56604 12.9015 8.51079 12.8536 8.46285L7.85355 3.46285C7.65829 3.26759 7.34171 3.26759 7.14645 3.46285C6.95118 3.65811 6.95118 3.9747 7.14645 4.16996L11.2929 8.31641L1.5 8.31641C1.22386 8.31641 1 8.54026 1 8.81641ZM16 1.81641C16 1.54026 16.2239 1.31641 16.5 1.31641C16.7761 1.31641 17 1.54026 17 1.81641L17 15.8164C17 16.0925 16.7761 16.3164 16.5 16.3164C16.2239 16.3164 16 16.0925 16 15.8164L16 1.81641Z" fill="white"/>
<path d="M11.2929 9.31641L11.2929 9.06641C11.394 9.06641 11.4852 9.12732 11.5239 9.22074C11.5626 9.31415 11.5412 9.42168 11.4697 9.49318L11.2929 9.31641ZM7.14645 13.4629L6.96967 13.2861L7.14645 13.4629ZM7.14645 14.17L6.96967 14.3467L7.14645 14.17ZM12.8536 9.16996L12.6768 8.99318L12.6768 8.99318L12.8536 9.16996ZM13 8.81941L13.25 8.82012L13.25 8.8209L13 8.81941ZM13 8.81641L13.25 8.81569L13.25 8.81712L13 8.81641ZM13 8.81341L13.25 8.81194L13.25 8.81269L13 8.81341ZM12.9621 8.62501L12.7311 8.72078L12.7311 8.72059L12.9621 8.62501ZM12.8536 8.46285L13.0303 8.28608L12.8536 8.46285ZM7.85355 3.46285L7.67678 3.63963L7.85355 3.46285ZM7.14645 3.46285L7.32322 3.63963L7.32322 3.63963L7.14645 3.46285ZM7.14645 4.16996L7.32322 3.99318L7.32322 3.99318L7.14645 4.16996ZM11.2929 8.31641L11.4697 8.13963C11.5412 8.21113 11.5626 8.31866 11.5239 8.41208C11.4852 8.5055 11.394 8.56641 11.2929 8.56641L11.2929 8.31641ZM1.5 9.56641C1.08579 9.56641 0.75 9.23062 0.75 8.81641L1.25 8.81641C1.25 8.95448 1.36193 9.06641 1.5 9.06641L1.5 9.56641ZM11.2929 9.56641L1.5 9.56641L1.5 9.06641L11.2929 9.06641L11.2929 9.56641ZM6.96967 13.2861L11.1161 9.13963L11.4697 9.49318L7.32322 13.6396L6.96967 13.2861ZM6.96967 14.3467C6.67678 14.0538 6.67678 13.579 6.96967 13.2861L7.32322 13.6396C7.22559 13.7373 7.22559 13.8956 7.32322 13.9932L6.96967 14.3467ZM8.03033 14.3467C7.73744 14.6396 7.26256 14.6396 6.96967 14.3467L7.32322 13.9932C7.42085 14.0908 7.57915 14.0908 7.67678 13.9932L8.03033 14.3467ZM13.0303 9.34674L8.03033 14.3467L7.67678 13.9932L12.6768 8.99318L13.0303 9.34674ZM13.25 8.8209C13.2489 9.01096 13.1756 9.20149 13.0303 9.34674L12.6768 8.99318C12.7253 8.94469 12.7496 8.88177 12.75 8.81791L13.25 8.8209ZM13.25 8.81712L13.25 8.82012L12.75 8.81869L12.75 8.81569L13.25 8.81712ZM13.25 8.81269L13.25 8.81569L12.75 8.81712L12.75 8.81412L13.25 8.81269ZM13.193 8.52925C13.2293 8.61671 13.2494 8.71231 13.25 8.81194L12.75 8.81488C12.7498 8.7811 12.743 8.74948 12.7311 8.72078L13.193 8.52925ZM13.0303 8.28608C13.1019 8.35766 13.1563 8.44063 13.1931 8.52944L12.7311 8.72059C12.719 8.69145 12.7011 8.66392 12.6768 8.63963L13.0303 8.28608ZM8.03033 3.28608L13.0303 8.28608L12.6768 8.63963L7.67678 3.63963L8.03033 3.28608ZM6.96967 3.28608C7.26256 2.99318 7.73744 2.99318 8.03033 3.28608L7.67678 3.63963C7.57915 3.542 7.42085 3.542 7.32322 3.63963L6.96967 3.28608ZM6.96967 4.34674C6.67678 4.05384 6.67678 3.57897 6.96967 3.28608L7.32322 3.63963C7.22559 3.73726 7.22559 3.89555 7.32322 3.99318L6.96967 4.34674ZM11.1161 8.49318L6.96967 4.34674L7.32322 3.99318L11.4697 8.13963L11.1161 8.49318ZM1.5 8.06641L11.2929 8.06641L11.2929 8.56641L1.5 8.56641L1.5 8.06641ZM0.75 8.81641C0.75 8.40219 1.08579 8.06641 1.5 8.06641L1.5 8.56641C1.36193 8.56641 1.25 8.67833 1.25 8.81641L0.75 8.81641ZM16.5 1.56641C16.3619 1.56641 16.25 1.67833 16.25 1.81641L15.75 1.81641C15.75 1.40219 16.0858 1.06641 16.5 1.06641L16.5 1.56641ZM16.75 1.81641C16.75 1.67833 16.6381 1.56641 16.5 1.56641L16.5 1.06641C16.9142 1.06641 17.25 1.40219 17.25 1.81641L16.75 1.81641ZM16.75 15.8164L16.75 1.81641L17.25 1.81641L17.25 15.8164L16.75 15.8164ZM16.5 16.0664C16.6381 16.0664 16.75 15.9545 16.75 15.8164L17.25 15.8164C17.25 16.2306 16.9142 16.5664 16.5 16.5664L16.5 16.0664ZM16.25 15.8164C16.25 15.9545 16.3619 16.0664 16.5 16.0664L16.5 16.5664C16.0858 16.5664 15.75 16.2306 15.75 15.8164L16.25 15.8164ZM16.25 1.81641L16.25 15.8164L15.75 15.8164L15.75 1.81641L16.25 1.81641Z" fill="white"/>
</svg>
