<svg width="147" height="72" viewBox="0 0 147 72" fill="none" xmlns="http://www.w3.org/2000/svg">
<g filter="url(#filter0_d_27_25805)">
<rect x="6" y="4" width="127" height="52" rx="4" fill="#095FF6"/>
</g>
<path d="M42.3291 24.1992V36.9961H40.624L34.1816 27.126V36.9961H32.4854V24.1992H34.1816L40.6504 34.0957V24.1992H42.3291ZM53.8248 35.6162V36.9961H47.0485V35.6162H53.8248ZM47.3912 24.1992V36.9961H45.695V24.1992H47.3912ZM52.9284 29.7012V31.0811H47.0485V29.7012H52.9284ZM53.737 24.1992V25.5879H47.0485V24.1992H53.737ZM57.3841 24.1992L60.4602 29.1035L63.5364 24.1992H65.5139L61.471 30.5361L65.6106 36.9961H63.6155L60.4602 31.9951L57.305 36.9961H55.3098L59.4495 30.5361L55.4065 24.1992H57.3841ZM72.6591 24.1992V36.9961H70.9892V24.1992H72.6591ZM76.7724 24.1992V25.5879H66.8847V24.1992H76.7724Z" fill="white"/>
<path d="M99.3855 35.6979C99.1775 35.5857 99.0479 35.3723 99.0479 35.1402V31.5265H91.9125C91.5522 31.5265 91.2598 31.2408 91.2598 30.8889C91.2598 30.537 91.5522 30.2513 91.9125 30.2513H99.0479V26.6376C99.0479 26.4047 99.1775 26.1913 99.3855 26.08C99.5935 25.9669 99.8476 25.9745 100.049 26.0978L106.955 30.3491C107.145 30.4664 107.26 30.6696 107.26 30.8889C107.26 31.1082 107.145 31.3114 106.955 31.4287L100.049 35.68C99.9425 35.7446 99.8215 35.7778 99.7006 35.7778C99.5926 35.7778 99.4839 35.7506 99.3855 35.6979Z" fill="white"/>
<defs>
<filter id="filter0_d_27_25805" x="0" y="0" width="147" height="72" filterUnits="userSpaceOnUse" color-interpolation-filters="sRGB">
<feFlood flood-opacity="0" result="BackgroundImageFix"/>
<feColorMatrix in="SourceAlpha" type="matrix" values="0 0 0 0 0 0 0 0 0 0 0 0 0 0 0 0 0 0 127 0" result="hardAlpha"/>
<feOffset dx="4" dy="6"/>
<feGaussianBlur stdDeviation="5"/>
<feComposite in2="hardAlpha" operator="out"/>
<feColorMatrix type="matrix" values="0 0 0 0 0 0 0 0 0 0.533333 0 0 0 0 0.807843 0 0 0 0.12 0"/>
<feBlend mode="normal" in2="BackgroundImageFix" result="effect1_dropShadow_27_25805"/>
<feBlend mode="normal" in="SourceGraphic" in2="effect1_dropShadow_27_25805" result="shape"/>
</filter>
</defs>
</svg>
