<svg width="24" height="25" viewBox="0 0 24 25" fill="none" xmlns="http://www.w3.org/2000/svg">
<path fill-rule="evenodd" clip-rule="evenodd" d="M2.79932 1.43771C1.69475 1.43771 0.799316 2.33314 0.799316 3.43771V20.2188C0.799316 21.3234 1.69475 22.2188 2.79932 22.2188H9.24164C9.6003 22.2188 9.89105 21.9281 9.89105 21.5694C9.89105 21.2107 9.6003 20.92 9.24164 20.92H3.09814C2.54585 20.92 2.09814 20.4723 2.09814 19.92V3.73653C2.09814 3.18425 2.54585 2.73653 3.09814 2.73653H16.684C17.2362 2.73653 17.684 3.18425 17.684 3.73653V8.58122C17.684 8.93987 17.9747 9.23062 18.3334 9.23062C18.692 9.23062 18.9828 8.93987 18.9828 8.58122V3.43771C18.9828 2.33314 18.0873 1.43771 16.9828 1.43771H2.79932ZM19.9545 10.3813C19.7592 10.186 19.4426 10.186 19.2474 10.3813L11.3733 18.2554C11.3092 18.3195 11.2638 18.3998 11.2418 18.4877L10.2575 22.4247C10.2149 22.5951 10.2648 22.7753 10.389 22.8995C10.5132 23.0237 10.6935 23.0736 10.8638 23.0311L14.8009 22.0468C14.8888 22.0248 14.9691 21.9794 15.0332 21.9153L22.9073 14.0412C23.1025 13.8459 23.1025 13.5293 22.9073 13.3341L19.9545 10.3813ZM11.4298 21.8588L12.1783 18.8646L19.6009 11.442L21.8466 13.6876L14.424 21.1102L11.4298 21.8588Z" fill="white"/>
</svg>
