<svg width="65" height="65" viewBox="0 0 65 65" fill="none" xmlns="http://www.w3.org/2000/svg">
<g clip-path="url(#clip0_62_3003)">
<path fill-rule="evenodd" clip-rule="evenodd" d="M5.41671 33.8541C5.41671 18.1485 18.1486 5.41659 33.8542 5.41659C49.5598 5.41659 62.2917 18.1485 62.2917 33.8541C62.2917 49.5597 49.5598 62.2916 33.8542 62.2916C18.1486 62.2916 5.41671 49.5597 5.41671 33.8541ZM33.8542 2.70825C16.6528 2.70825 2.70837 16.6527 2.70837 33.8541C2.70837 51.0555 16.6528 64.9999 33.8542 64.9999C51.0556 64.9999 65 51.0555 65 33.8541C65 16.6527 51.0556 2.70825 33.8542 2.70825ZM51.0618 23.9783C51.5906 23.4495 51.5906 22.592 51.0618 22.0632C50.5329 21.5344 49.6755 21.5344 49.1467 22.0632L28.4375 42.7723L18.5617 32.8965C18.0329 32.3677 17.1755 32.3677 16.6467 32.8965C16.1178 33.4254 16.1178 34.2828 16.6467 34.8116L27.48 45.645C28.0088 46.1738 28.8662 46.1738 29.3951 45.645L51.0618 23.9783Z" fill="#05C36C"/>
</g>
<defs>
<clipPath id="clip0_62_3003">
<rect width="65" height="65" fill="white"/>
</clipPath>
</defs>
</svg>
