<svg width="80" height="80" viewBox="0 0 80 80" fill="none" xmlns="http://www.w3.org/2000/svg">
<rect width="80" height="80" rx="5" fill="#F0F3F8"/>
<path fill-rule="evenodd" clip-rule="evenodd" d="M40 41.4283C43.9465 41.4283 47.1429 38.2319 47.1429 34.2854C47.1429 30.339 43.9465 27.1426 40 27.1426C36.0536 27.1426 32.8572 30.339 32.8572 34.2854C32.8572 38.2319 36.0536 41.4283 40 41.4283ZM45.7143 34.2854C45.7143 37.4426 43.1572 39.9997 40 39.9997C36.8429 39.9997 34.2857 37.4426 34.2857 34.2854C34.2857 31.1283 36.8429 28.5711 40 28.5711C43.1572 28.5711 45.7143 31.1283 45.7143 34.2854Z" fill="#2C76C9"/>
<path fill-rule="evenodd" clip-rule="evenodd" d="M43.5965 42.7671L41.4286 48.9599V48.5713L41.0179 45.6992C41.149 45.6716 41.2697 45.6076 41.3662 45.5147C41.4627 45.4217 41.5311 45.3035 41.5636 45.1735L41.9207 43.7449C41.9471 43.6396 41.9491 43.5298 41.9267 43.4236C41.9043 43.3174 41.8579 43.2178 41.7912 43.1322C41.7245 43.0466 41.6391 42.9773 41.5417 42.9297C41.4442 42.882 41.3371 42.8572 41.2286 42.8571H38.7729C38.6644 42.8571 38.5573 42.8818 38.4598 42.9294C38.3623 42.977 38.2769 43.0462 38.2101 43.1317C38.1434 43.2172 38.0969 43.3168 38.0744 43.4229C38.0518 43.5291 38.0538 43.6389 38.08 43.7442L38.4372 45.1728C38.4695 45.3029 38.5379 45.4213 38.6344 45.5144C38.7309 45.6075 38.8517 45.6715 38.9829 45.6992L38.5815 48.5078L36.4 42.7592L36.3857 42.7285C36.2803 42.5121 36.1042 42.3381 35.8866 42.2354C35.6689 42.1327 35.4227 42.1073 35.1886 42.1635C34.945 42.2228 34.6765 42.2849 34.3929 42.3521C33.7236 42.5085 32.9686 42.6849 32.2529 42.8842C31.2436 43.1656 30.1979 43.5199 29.4715 43.9971C28.1336 44.8756 27.1429 46.0378 27.1429 47.4999V52.8571H52.8572V47.4999C52.8572 46.0378 51.8672 44.8749 50.5286 43.9971C49.8029 43.5199 48.7572 43.1656 47.7479 42.8842C47.0315 42.6849 46.2772 42.5085 45.6079 42.3521C45.3424 42.2904 45.0771 42.2275 44.8122 42.1635C44.5782 42.1073 44.3321 42.1327 44.1145 42.2355C43.897 42.3382 43.721 42.5121 43.6157 42.7285L43.5965 42.7671ZM45.3172 43.7513L44.8079 43.6313L42.0779 51.4285H51.4286V47.4999C51.4286 46.7528 50.9257 45.9663 49.745 45.1913C49.2207 44.8463 48.3665 44.5392 47.365 44.2606C46.6863 44.0767 46.0037 43.9069 45.3179 43.7513H45.3172ZM35.2015 43.6292L38.1607 51.4285H28.5715V47.4999C28.5715 46.7528 29.0743 45.9663 30.255 45.1913C30.7793 44.8463 31.6336 44.5392 32.635 44.2606C33.3222 44.0692 34.0243 43.9049 34.6822 43.7513L35.2015 43.6292Z" fill="#2C76C9"/>
</svg>
