<svg width="80" height="80" viewBox="0 0 80 80" fill="none" xmlns="http://www.w3.org/2000/svg">
<rect width="80" height="80" rx="5" fill="#F0F3F8"/>
<path d="M53.9286 28.2144H26.0715C25.4788 28.2144 25 28.6932 25 29.2858V50.7144C25 51.307 25.4788 51.7858 26.0715 51.7858H53.9286C54.5213 51.7858 55 51.307 55 50.7144V29.2858C55 28.6932 54.5213 28.2144 53.9286 28.2144ZM27.4108 30.6251H52.5893V34.6429H27.4108V30.6251ZM52.5893 49.3751H27.4108V37.5894H52.5893V49.3751ZM44.6541 47.2322H50.1786C50.3259 47.2322 50.4465 47.1117 50.4465 46.9644V44.5536C50.4465 44.4063 50.3259 44.2858 50.1786 44.2858H44.6541C44.5067 44.2858 44.3862 44.4063 44.3862 44.5536V46.9644C44.3862 47.1117 44.5067 47.2322 44.6541 47.2322Z" fill="#2C76C9"/>
</svg>
