<svg width="41" height="42" viewBox="0 0 41 42" fill="none" xmlns="http://www.w3.org/2000/svg">
<path d="M20.7289 5.7953C23.6528 5.7953 26.0222 8.16965 26.0222 11.0997C26.0222 14.0297 23.6528 16.4041 20.7289 16.4041C17.8049 16.4041 15.4355 14.0297 15.4355 11.0997C15.4355 8.16965 17.8049 5.7953 20.7289 5.7953ZM20.7289 28.5284C28.2152 28.5284 36.1048 32.2162 36.1048 33.8328V36.6113H5.35295V33.8328C5.35295 32.2162 13.2426 28.5284 20.7289 28.5284ZM20.7289 0.996094C15.1583 0.996094 10.6463 5.51745 10.6463 11.0997C10.6463 16.6819 15.1583 21.2033 20.7289 21.2033C26.2995 21.2033 30.8115 16.6819 30.8115 11.0997C30.8115 5.51745 26.2995 0.996094 20.7289 0.996094ZM20.7289 23.7292C13.9988 23.7292 0.563721 27.1139 0.563721 33.8328V41.4105H40.894V33.8328C40.894 27.1139 27.459 23.7292 20.7289 23.7292Z" fill="url(#paint0_linear_62_311)"/>
<defs>
<linearGradient id="paint0_linear_62_311" x1="20.7289" y1="0.996094" x2="20.7289" y2="41.4105" gradientUnits="userSpaceOnUse">
<stop stop-color="#4DADFE"/>
<stop offset="1" stop-color="#02F0FE"/>
</linearGradient>
</defs>
</svg>
