<svg width="24" height="25" viewBox="0 0 24 25" fill="none" xmlns="http://www.w3.org/2000/svg">
<path fill-rule="evenodd" clip-rule="evenodd" d="M1.92969 3.41354C1.92969 2.91764 2.3317 2.51562 2.82761 2.51562H8.41929C8.91519 2.51562 9.31721 2.91764 9.31721 3.41354V9.00522C9.31721 9.50113 8.91519 9.90314 8.41929 9.90314H2.82761C2.3317 9.90314 1.92969 9.50113 1.92969 9.00522V3.41354ZM2.82761 1.51562C1.77942 1.51562 0.929688 2.36535 0.929688 3.41354V9.00522C0.929688 10.0534 1.77942 10.9031 2.82761 10.9031H8.41929C9.46748 10.9031 10.3172 10.0534 10.3172 9.00522V3.41354C10.3172 2.36535 9.46748 1.51562 8.41929 1.51562H2.82761ZM14.5098 3.41354C14.5098 2.91764 14.9118 2.51562 15.4077 2.51562H20.9994C21.4953 2.51562 21.8973 2.91764 21.8973 3.41354V9.00522C21.8973 9.50113 21.4953 9.90314 20.9994 9.90314H15.4077C14.9118 9.90314 14.5098 9.50113 14.5098 9.00522V3.41354ZM15.4077 1.51562C14.3595 1.51562 13.5098 2.36535 13.5098 3.41354V9.00522C13.5098 10.0534 14.3595 10.9031 15.4077 10.9031H20.9994C22.0476 10.9031 22.8973 10.0534 22.8973 9.00522V3.41354C22.8973 2.36535 22.0476 1.51562 20.9994 1.51562H15.4077ZM2.82761 15.0967C2.3317 15.0967 1.92969 15.4987 1.92969 15.9946V21.5863C1.92969 22.0822 2.3317 22.4842 2.82761 22.4842H8.41929C8.91519 22.4842 9.31721 22.0822 9.31721 21.5863V15.9946C9.31721 15.4987 8.91519 15.0967 8.41929 15.0967H2.82761ZM0.929688 15.9946C0.929688 14.9464 1.77942 14.0967 2.82761 14.0967H8.41929C9.46748 14.0967 10.3172 14.9464 10.3172 15.9946V21.5863C10.3172 22.6345 9.46748 23.4842 8.41929 23.4842H2.82761C1.77942 23.4842 0.929688 22.6345 0.929688 21.5863V15.9946ZM14.5098 15.9946C14.5098 15.4987 14.9118 15.0967 15.4077 15.0967H20.9994C21.4953 15.0967 21.8973 15.4987 21.8973 15.9946V21.5863C21.8973 22.0822 21.4953 22.4842 20.9994 22.4842H15.4077C14.9118 22.4842 14.5098 22.0822 14.5098 21.5863V15.9946ZM15.4077 14.0967C14.3595 14.0967 13.5098 14.9464 13.5098 15.9946V21.5863C13.5098 22.6345 14.3595 23.4842 15.4077 23.4842H20.9994C22.0476 23.4842 22.8973 22.6345 22.8973 21.5863V15.9946C22.8973 14.9464 22.0476 14.0967 20.9994 14.0967H15.4077Z" fill="white"/>
</svg>
