<svg width="80" height="80" viewBox="0 0 80 80" fill="none" xmlns="http://www.w3.org/2000/svg">
<rect width="80" height="80" rx="5" fill="#F0F3F8"/>
<path d="M51.7858 27.1426H23.9286V48.5711H51.7858V27.1426ZM49.6429 46.4283H26.0715V29.2854H49.6429V46.4283Z" fill="#2C76C9"/>
<path d="M53.9286 32.5V50.7143H29.2857V52.8571H56.0714V32.5H53.9286Z" fill="#2C76C9"/>
<path d="M37.8572 43.1112C40.5156 43.1112 42.6786 40.7583 42.6786 37.8661C42.6786 34.974 40.5156 32.6211 37.8572 32.6211C35.1987 32.6211 33.0357 34.974 33.0357 37.8661C33.0357 40.7583 35.1987 43.1112 37.8572 43.1112ZM37.8572 34.764C39.3341 34.764 40.5357 36.1556 40.5357 37.8661C40.5357 39.5767 39.3341 40.9683 37.8572 40.9683C36.3802 40.9683 35.1786 39.5767 35.1786 37.8661C35.1786 36.1556 36.3802 34.764 37.8572 34.764Z" fill="#2C76C9"/>
<path d="M28.2143 31.9639H30.3572V43.7496H28.2143V31.9639Z" fill="#2C76C9"/>
<path d="M45.3572 31.9639H47.5V43.7496H45.3572V31.9639Z" fill="#2C76C9"/>
</svg>
