<svg width="34" height="34" viewBox="0 0 34 34" fill="none" xmlns="http://www.w3.org/2000/svg">
<circle cx="16.6704" cy="17.1194" r="16.6702" fill="#F05958"/>
<path d="M21.0281 22.7992H12.8593C12.6088 22.7992 12.4055 22.5959 12.4055 22.3454C12.4055 22.0949 12.6088 21.8916 12.8593 21.8916H21.0281C21.2786 21.8916 21.4819 22.0949 21.4819 22.3454C21.4819 22.5959 21.2786 22.7992 21.0281 22.7992Z" fill="white"/>
<path d="M20.1205 20.5306C19.87 20.5306 19.6669 20.3278 19.6667 20.0775C19.6649 18.8342 18.4078 18.1177 17.2295 17.5438C17.0729 17.4676 16.9066 17.39 16.7346 17.3101C15.2919 16.6378 13.3162 15.717 13.3132 13.724C13.313 13.4735 13.5159 13.27 13.7664 13.2695H13.7671C14.0173 13.2695 14.2206 13.4724 14.2209 13.7227C14.2229 15.1381 15.7611 15.8547 17.118 16.4873C17.2948 16.5697 17.4659 16.6496 17.627 16.7281C18.6563 17.2293 20.5718 18.1621 20.5746 20.0764C20.5748 20.3269 20.3719 20.5304 20.1214 20.5308C20.121 20.5306 20.1207 20.5306 20.1205 20.5306Z" fill="white"/>
<path d="M13.7671 20.5306C13.7668 20.5306 13.7666 20.5306 13.7664 20.5306C13.5159 20.5302 13.3128 20.3269 13.3132 20.0761C13.3162 18.0832 15.2919 17.1624 16.7346 16.4901C16.9066 16.41 17.0729 16.3326 17.2295 16.2563C18.4078 15.6825 19.6649 14.9661 19.6667 13.7227C19.6669 13.4724 19.8702 13.2695 20.1205 13.2695H20.1212C20.3717 13.27 20.5748 13.4733 20.5743 13.724C20.5716 15.6382 18.656 16.5711 17.6268 17.0723C17.4657 17.1508 17.2948 17.2305 17.1178 17.3131C15.7611 17.9452 14.2229 18.662 14.2209 20.0775C14.2206 20.3278 14.0173 20.5306 13.7671 20.5306Z" fill="white"/>
<path d="M20.1206 22.7988C19.8701 22.7988 19.6667 22.5955 19.6667 22.345V20.0759C19.6667 19.8254 19.8701 19.6221 20.1206 19.6221C20.3711 19.6221 20.5744 19.8254 20.5744 20.0759V22.345C20.5744 22.5955 20.3711 22.7988 20.1206 22.7988Z" fill="white"/>
<path d="M13.7671 22.7988C13.5165 22.7988 13.3132 22.5955 13.3132 22.345V20.0759C13.3132 19.8254 13.5165 19.6221 13.7671 19.6221C14.0176 19.6221 14.2209 19.8254 14.2209 20.0759V22.345C14.2209 22.5955 14.0176 22.7988 13.7671 22.7988Z" fill="white"/>
<path d="M20.1206 14.1767C19.8701 14.1767 19.6667 13.9734 19.6667 13.7229V11.4538C19.6667 11.2033 19.8701 11 20.1206 11C20.3711 11 20.5744 11.2033 20.5744 11.4538V13.7229C20.5744 13.9734 20.3711 14.1767 20.1206 14.1767Z" fill="white"/>
<path d="M13.7671 14.1767C13.5165 14.1767 13.3132 13.9734 13.3132 13.7229V11.4538C13.3132 11.2033 13.5165 11 13.7671 11C14.0176 11 14.2209 11.2033 14.2209 11.4538V13.7229C14.2209 13.9734 14.0176 14.1767 13.7671 14.1767Z" fill="white"/>
<path d="M21.0281 11.9076H12.8593C12.6088 11.9076 12.4055 11.7043 12.4055 11.4538C12.4055 11.2033 12.6088 11 12.8593 11H21.0281C21.2786 11 21.4819 11.2033 21.4819 11.4538C21.4819 11.7043 21.2786 11.9076 21.0281 11.9076Z" fill="white"/>
</svg>
