<svg width="24" height="25" viewBox="0 0 24 25" fill="none" xmlns="http://www.w3.org/2000/svg">
<path fill-rule="evenodd" clip-rule="evenodd" d="M4.4541 1.40784C3.34954 1.40784 2.4541 2.30327 2.4541 3.40784V21.2259C2.4541 22.3304 3.34953 23.2259 4.4541 23.2259H19.5449C20.6494 23.2259 21.5449 22.3304 21.5449 21.2259V3.40783C21.5449 2.30326 20.6494 1.40784 19.5449 1.40784H4.4541ZM3.81773 3.77146C3.81773 3.21918 4.26544 2.77146 4.81773 2.77146H19.1812C19.7335 2.77146 20.1812 3.21918 20.1812 3.77146V20.8622C20.1812 21.4145 19.7335 21.8622 19.1812 21.8622H4.81773C4.26544 21.8622 3.81773 21.4145 3.81773 20.8622V3.77146ZM7.22737 6.86277C6.85082 6.86277 6.54556 7.16803 6.54556 7.54459C6.54556 7.92114 6.85082 8.2264 7.22737 8.2264H16.7728C17.1493 8.2264 17.4546 7.92114 17.4546 7.54459C17.4546 7.16803 17.1493 6.86277 16.7728 6.86277H7.22737ZM6.54556 11.635C6.54556 11.2585 6.85082 10.9532 7.22737 10.9532H16.7728C17.1493 10.9532 17.4546 11.2585 17.4546 11.635C17.4546 12.0116 17.1493 12.3168 16.7728 12.3168H7.22737C6.85082 12.3168 6.54556 12.0116 6.54556 11.635ZM7.22737 15.0437C6.85082 15.0437 6.54556 15.3489 6.54556 15.7255C6.54556 16.102 6.85082 16.4073 7.22737 16.4073H12.6819C13.0584 16.4073 13.3637 16.102 13.3637 15.7255C13.3637 15.3489 13.0584 15.0437 12.6819 15.0437H7.22737Z" fill="white"/>
</svg>
