<svg width="120" height="103" viewBox="0 0 120 103" fill="none" xmlns="http://www.w3.org/2000/svg">
<path d="M93.6 15.8333H88.4V95H93.6C99.32 95 104 90.25 104 84.4444V26.3889C104 20.5833 99.32 15.8333 93.6 15.8333ZM0 26.3889V84.4444C0 90.25 4.6748 95 10.4 95H15.6V15.8333H10.4C4.6748 15.8333 0 20.5833 0 26.3889ZM70.2 4.78167C66.6588 3.11389 60.3772 0 51.9012 0C43.4096 0 37.3412 3.11389 33.8 4.78167V15.8333H20.8V95H83.2V15.8333H70.2V4.78167ZM62.4 15.8333H41.6V8.78222C44.3768 7.56833 47.2056 6.32805 51.9012 6.32805C56.5916 6.32805 59.6284 7.56306 62.4 8.78222V15.8333Z" fill="#C5DCFF"/>
<rect x="76" y="64" width="44" height="38.0541" fill="#69A4FE"/>
<path d="M109.553 90.3258C108.957 88.9239 108.091 87.6506 107.004 86.5767C105.921 85.4997 104.637 84.641 103.225 84.048C103.212 84.0417 103.199 84.0386 103.187 84.0323C105.157 82.6205 106.438 80.3209 106.438 77.7263C106.438 73.4282 102.927 69.9458 98.5945 69.9458C94.2616 69.9458 90.751 73.4282 90.751 77.7263C90.751 80.3209 92.0319 82.6205 94.0023 84.0354C93.9896 84.0417 93.977 84.0449 93.9643 84.0511C92.5474 84.6441 91.276 85.4943 90.1849 86.5798C89.0991 87.6545 88.2335 88.9277 87.6357 90.3289C87.0485 91.7007 86.7318 93.1714 86.7027 94.6615C86.7019 94.695 86.7078 94.7283 86.7201 94.7595C86.7325 94.7907 86.751 94.8191 86.7745 94.8431C86.7981 94.867 86.8263 94.8861 86.8574 94.8991C86.8885 94.9121 86.922 94.9188 86.9557 94.9188H88.8534C88.9925 94.9188 89.1032 94.809 89.1064 94.6741C89.1696 92.2521 90.1501 89.9838 91.8832 88.2645C93.6765 86.4857 96.058 85.5068 98.5945 85.5068C101.131 85.5068 103.513 86.4857 105.306 88.2645C107.039 89.9838 108.019 92.2521 108.083 94.6741C108.086 94.8121 108.197 94.9188 108.336 94.9188H110.233C110.267 94.9188 110.301 94.9121 110.332 94.8991C110.363 94.8861 110.391 94.867 110.415 94.8431C110.438 94.8191 110.457 94.7907 110.469 94.7595C110.481 94.7283 110.487 94.695 110.486 94.6615C110.455 93.1619 110.142 91.703 109.553 90.3258ZM98.5945 83.1225C97.1428 83.1225 95.7765 82.5609 94.7487 81.5413C93.7208 80.5217 93.1547 79.1663 93.1547 77.7263C93.1547 76.2863 93.7208 74.931 94.7487 73.9114C95.7765 72.8917 97.1428 72.3302 98.5945 72.3302C100.046 72.3302 101.413 72.8917 102.44 73.9114C103.468 74.931 104.034 76.2863 104.034 77.7263C104.034 79.1663 103.468 80.5217 102.44 81.5413C101.413 82.5609 100.046 83.1225 98.5945 83.1225Z" fill="#F3F8FF"/>
</svg>
