<svg width="24" height="25" viewBox="0 0 24 25" fill="none" xmlns="http://www.w3.org/2000/svg">
<path fill-rule="evenodd" clip-rule="evenodd" d="M1.03027 10.946C1.03027 5.55548 6.03753 1.34683 12.0008 1.34683C17.964 1.34683 22.9712 5.55548 22.9712 10.946C22.9712 13.3936 21.9194 15.6053 20.2286 17.2834V22.6021C20.2286 22.8435 20.1017 23.067 19.8945 23.1908C19.6873 23.3145 19.4303 23.3202 19.2178 23.2058L13.984 20.3871C13.3408 20.4901 12.6783 20.5452 12.0008 20.5452C6.03753 20.5452 1.03027 16.3365 1.03027 10.946ZM12.0008 2.71814C6.60404 2.71814 2.40158 6.49052 2.40158 10.946C2.40158 15.4015 6.60404 19.1739 12.0008 19.1739C12.6788 19.1739 13.3403 19.1119 13.9803 18.9968C14.1328 18.9694 14.2902 18.9945 14.4267 19.068L18.8573 21.4541V16.9921C18.8573 16.8024 18.9359 16.6212 19.0744 16.4916C20.6524 15.0143 21.5999 13.0687 21.5999 10.946C21.5999 6.49052 17.3975 2.71814 12.0008 2.71814ZM11.5466 16.6025C12.037 16.6025 12.4347 16.2049 12.4347 15.7144C12.4347 15.2239 12.037 14.8262 11.5466 14.8262C11.0561 14.8262 10.6584 15.2239 10.6584 15.7144C10.6584 16.2049 11.0561 16.6025 11.5466 16.6025ZM9.84106 6.01211C10.6475 5.65571 11.5706 5.50136 12.3657 5.57599C13.1731 5.65178 13.7522 5.94967 14.0246 6.39045C14.6123 7.34154 14.2801 8.54045 13.0352 9.59527C11.712 10.7164 11.0458 11.4648 11.0458 12.6065C11.0458 12.8826 11.2696 13.1065 11.5458 13.1065C11.8219 13.1065 12.0458 12.8826 12.0458 12.6065C12.0458 11.9719 12.3404 11.4947 13.6817 10.3582C15.1012 9.15542 15.8418 7.42885 14.8753 5.86478C14.3705 5.04797 13.4234 4.67089 12.4592 4.58037C11.4827 4.48871 10.3889 4.67673 9.43685 5.09744C9.18427 5.20906 9.07 5.5043 9.18162 5.75688C9.29324 6.00946 9.58848 6.12372 9.84106 6.01211Z" fill="white"/>
</svg>
