<svg width="80" height="80" viewBox="0 0 80 80" fill="none" xmlns="http://www.w3.org/2000/svg">
<rect width="80" height="80" rx="5" fill="#F0F3F8"/>
<path d="M54.9619 39.3234L40.6762 25.0377C40.4978 24.8603 40.2564 24.7607 40.0048 24.7607C39.7532 24.7607 39.5118 24.8603 39.3334 25.0377L25.0476 39.3234C24.8916 39.5056 24.8101 39.74 24.8193 39.9796C24.8286 40.2193 24.928 40.4467 25.0976 40.6163C25.2672 40.7859 25.4946 40.8853 25.7343 40.8946C25.9739 40.9038 26.2083 40.8223 26.3905 40.6663L40 27.0567L53.6095 40.6758C53.7917 40.8318 54.0261 40.9133 54.2658 40.9041C54.5055 40.8948 54.7328 40.7955 54.9025 40.6258C55.0721 40.4562 55.1714 40.2289 55.1807 39.9892C55.19 39.7495 55.1084 39.5151 54.9524 39.3329L54.9619 39.3234Z" fill="#2C76C9"/>
<path d="M49.5239 53.3329H44.7619V43.8091H35.2381V53.3329H30.4762V39.9996L28.5715 41.9043V53.3329C28.5715 53.8381 28.7722 54.3226 29.1294 54.6798C29.4866 55.037 29.9711 55.2377 30.4762 55.2377H37.1429V45.7139H42.8572V55.2377H49.5239C50.029 55.2377 50.5135 55.037 50.8707 54.6798C51.2279 54.3226 51.4286 53.8381 51.4286 53.3329V41.6758L49.5239 39.771V53.3329Z" fill="#2C76C9"/>
</svg>
