<svg width="53" height="54" viewBox="0 0 53 54" fill="none" xmlns="http://www.w3.org/2000/svg">
<path d="M14.1721 28.178L14.3443 28.0589L14.1965 27.9105C13.0302 26.7395 12.2821 25.124 12.2821 23.3348C12.2821 19.7923 15.11 16.9005 18.5564 16.9005C22.0028 16.9005 24.8307 19.7923 24.8307 23.3348C24.8307 25.1256 24.0826 26.7395 22.9162 27.9105L22.7685 28.0589L22.9407 28.178C24.0145 28.9206 24.8952 29.9213 25.5058 31.0932C26.0895 32.2136 26.4093 33.4577 26.4405 34.7261H23.5655C23.4767 31.9595 21.289 29.7691 18.5564 29.7691C15.8237 29.7691 13.6361 31.9595 13.5472 34.7261H10.6723C10.7035 33.4577 11.0233 32.2136 11.607 31.0932C12.2176 29.9213 13.0983 28.9206 14.1721 28.178ZM4.22053 15.0732C4.22053 12.4477 6.33089 10.2912 8.88248 10.2912H44.3535C46.905 10.2912 49.0154 12.4477 49.0154 15.0732V38.2058C49.0154 40.8313 46.905 42.9877 44.3535 42.9877H8.88248C6.33089 42.9877 4.22053 40.8313 4.22053 38.2058V15.0732ZM44.3535 13.2459H8.88248C7.86924 13.2459 7.09517 14.0454 7.09517 15.0732V38.2058C7.09517 39.2336 7.86924 40.0331 8.88248 40.0331H44.3535C45.3667 40.0331 46.1408 39.2336 46.1408 38.2058V15.0732C46.1408 14.0454 45.3667 13.2459 44.3535 13.2459ZM42.5661 21.5075H30.0176V18.5528H42.5661V21.5075ZM21.956 23.3348C21.956 21.3966 20.458 19.8552 18.5564 19.8552C16.6548 19.8552 15.1567 21.3966 15.1567 23.3348C15.1567 25.2731 16.6548 26.8145 18.5564 26.8145C20.458 26.8145 21.956 25.2731 21.956 23.3348ZM42.5661 28.1168H30.0176V25.1621H42.5661V28.1168ZM37.7292 34.7261H30.0176V31.7715H37.7292V34.7261Z" fill="#2C76C9" stroke="#FAFAFA" stroke-width="0.35"/>
</svg>
