<svg width="308" height="42" viewBox="0 0 308 42" fill="none" xmlns="http://www.w3.org/2000/svg">
<path d="M56.7699 31V10.6364H61.0753V27.4503H69.8054V31H56.7699ZM90.5767 20.8182C90.5767 23.0388 90.1558 24.928 89.3139 26.4858C88.4787 28.0436 87.3385 29.2334 85.8935 30.0554C84.455 30.8707 82.8376 31.2784 81.0412 31.2784C79.2315 31.2784 77.6075 30.8674 76.169 30.0455C74.7306 29.2235 73.5938 28.0336 72.7585 26.4759C71.9233 24.9181 71.5057 23.0322 71.5057 20.8182C71.5057 18.5975 71.9233 16.7083 72.7585 15.1506C73.5938 13.5928 74.7306 12.4062 76.169 11.5909C77.6075 10.7689 79.2315 10.358 81.0412 10.358C82.8376 10.358 84.455 10.7689 85.8935 11.5909C87.3385 12.4062 88.4787 13.5928 89.3139 15.1506C90.1558 16.7083 90.5767 18.5975 90.5767 20.8182ZM86.2116 20.8182C86.2116 19.3797 85.9962 18.1667 85.5653 17.179C85.1411 16.1913 84.5412 15.4422 83.7656 14.9318C82.9901 14.4214 82.0819 14.1662 81.0412 14.1662C80.0005 14.1662 79.0923 14.4214 78.3168 14.9318C77.5412 15.4422 76.938 16.1913 76.5071 17.179C76.0829 18.1667 75.8707 19.3797 75.8707 20.8182C75.8707 22.2566 76.0829 23.4697 76.5071 24.4574C76.938 25.4451 77.5412 26.1941 78.3168 26.7045C79.0923 27.215 80.0005 27.4702 81.0412 27.4702C82.0819 27.4702 82.9901 27.215 83.7656 26.7045C84.5412 26.1941 85.1411 25.4451 85.5653 24.4574C85.9962 23.4697 86.2116 22.2566 86.2116 20.8182ZM96.1275 31H91.5138L98.5437 10.6364H104.092L111.112 31H106.498L101.397 15.2898H101.238L96.1275 31ZM95.8391 22.9957H106.737V26.3565H95.8391V22.9957ZM130.596 10.6364V31H126.877L118.017 18.1832H117.868V31H113.563V10.6364H117.341L126.131 23.4432H126.31V10.6364H130.596Z" fill="#2C76C9"/>
<path d="M144.215 31H140.954L148.282 10.6364H151.832L159.16 31H155.898L150.141 14.3352H149.982L144.215 31ZM144.762 23.0256H155.342V25.6108H144.762V23.0256ZM178.057 17.2585H174.955C174.835 16.5956 174.613 16.0123 174.288 15.5085C173.964 15.0047 173.566 14.5772 173.095 14.2259C172.625 13.8745 172.098 13.6094 171.514 13.4304C170.938 13.2514 170.324 13.1619 169.675 13.1619C168.501 13.1619 167.451 13.4569 166.523 14.0469C165.601 14.6368 164.872 15.5019 164.335 16.642C163.805 17.7822 163.54 19.1742 163.54 20.8182C163.54 22.4754 163.805 23.8741 164.335 25.0142C164.872 26.1544 165.605 27.0161 166.533 27.5994C167.461 28.1828 168.505 28.4744 169.665 28.4744C170.308 28.4744 170.918 28.3883 171.494 28.2159C172.078 28.0369 172.605 27.7751 173.075 27.4304C173.546 27.0857 173.944 26.6648 174.268 26.1676C174.6 25.6638 174.829 25.0871 174.955 24.4375L178.057 24.4474C177.891 25.4484 177.57 26.3698 177.092 27.2116C176.622 28.0469 176.015 28.7694 175.273 29.3793C174.537 29.9825 173.695 30.4498 172.747 30.7812C171.799 31.1127 170.765 31.2784 169.645 31.2784C167.882 31.2784 166.311 30.8608 164.932 30.0256C163.553 29.1837 162.466 27.9806 161.67 26.4162C160.882 24.8518 160.487 22.9858 160.487 20.8182C160.487 18.6439 160.885 16.7779 161.68 15.2202C162.476 13.6558 163.563 12.456 164.942 11.6207C166.321 10.7789 167.888 10.358 169.645 10.358C170.725 10.358 171.733 10.5137 172.668 10.8253C173.609 11.1302 174.454 11.581 175.203 12.1776C175.952 12.7675 176.572 13.4901 177.062 14.3452C177.553 15.1937 177.884 16.1648 178.057 17.2585ZM198.647 17.2585H195.544C195.425 16.5956 195.203 16.0123 194.878 15.5085C194.553 15.0047 194.156 14.5772 193.685 14.2259C193.214 13.8745 192.687 13.6094 192.104 13.4304C191.527 13.2514 190.914 13.1619 190.265 13.1619C189.091 13.1619 188.041 13.4569 187.113 14.0469C186.191 14.6368 185.462 15.5019 184.925 16.642C184.395 17.7822 184.13 19.1742 184.13 20.8182C184.13 22.4754 184.395 23.8741 184.925 25.0142C185.462 26.1544 186.194 27.0161 187.123 27.5994C188.051 28.1828 189.095 28.4744 190.255 28.4744C190.898 28.4744 191.507 28.3883 192.084 28.2159C192.667 28.0369 193.194 27.7751 193.665 27.4304C194.136 27.0857 194.533 26.6648 194.858 26.1676C195.19 25.6638 195.418 25.0871 195.544 24.4375L198.647 24.4474C198.481 25.4484 198.159 26.3698 197.682 27.2116C197.212 28.0469 196.605 28.7694 195.863 29.3793C195.127 29.9825 194.285 30.4498 193.337 30.7812C192.389 31.1127 191.355 31.2784 190.235 31.2784C188.471 31.2784 186.9 30.8608 185.522 30.0256C184.143 29.1837 183.056 27.9806 182.26 26.4162C181.471 24.8518 181.077 22.9858 181.077 20.8182C181.077 18.6439 181.475 16.7779 182.27 15.2202C183.066 13.6558 184.153 12.456 185.532 11.6207C186.91 10.7789 188.478 10.358 190.235 10.358C191.315 10.358 192.323 10.5137 193.257 10.8253C194.199 11.1302 195.044 11.581 195.793 12.1776C196.542 12.7675 197.162 13.4901 197.652 14.3452C198.143 15.1937 198.474 16.1648 198.647 17.2585ZM202.323 31V10.6364H215.09V13.2812H205.396V19.4858H214.424V22.1207H205.396V28.3551H215.21V31H202.323ZM219.194 31V10.6364H222.267V28.3551H231.494V31H219.194ZM237.758 31H234.497L241.825 10.6364H245.375L252.703 31H249.441L243.684 14.3352H243.525L237.758 31ZM238.305 23.0256H248.885V25.6108H238.305V23.0256ZM252.233 13.2812V10.6364H267.993V13.2812H261.639V31H258.577V13.2812H252.233ZM288.289 20.8182C288.289 22.9924 287.892 24.8617 287.096 26.4261C286.301 27.9839 285.21 29.1837 283.825 30.0256C282.446 30.8608 280.878 31.2784 279.122 31.2784C277.359 31.2784 275.784 30.8608 274.399 30.0256C273.02 29.1837 271.933 27.9806 271.137 26.4162C270.342 24.8518 269.944 22.9858 269.944 20.8182C269.944 18.6439 270.342 16.7779 271.137 15.2202C271.933 13.6558 273.02 12.456 274.399 11.6207C275.784 10.7789 277.359 10.358 279.122 10.358C280.878 10.358 282.446 10.7789 283.825 11.6207C285.21 12.456 286.301 13.6558 287.096 15.2202C287.892 16.7779 288.289 18.6439 288.289 20.8182ZM285.247 20.8182C285.247 19.161 284.978 17.7656 284.441 16.6321C283.911 15.492 283.182 14.6302 282.254 14.0469C281.333 13.4569 280.288 13.1619 279.122 13.1619C277.949 13.1619 276.901 13.4569 275.98 14.0469C275.058 14.6302 274.329 15.492 273.792 16.6321C273.262 17.7656 272.997 19.161 272.997 20.8182C272.997 22.4754 273.262 23.8741 273.792 25.0142C274.329 26.1477 275.058 27.0095 275.98 27.5994C276.901 28.1828 277.949 28.4744 279.122 28.4744C280.288 28.4744 281.333 28.1828 282.254 27.5994C283.182 27.0095 283.911 26.1477 284.441 25.0142C284.978 23.8741 285.247 22.4754 285.247 20.8182ZM292.12 31V10.6364H299.379C300.956 10.6364 302.265 10.9081 303.306 11.4517C304.353 11.9953 305.136 12.7476 305.653 13.7088C306.17 14.6634 306.428 15.767 306.428 17.0199C306.428 18.2661 306.166 19.3632 305.643 20.3111C305.126 21.2524 304.344 21.9848 303.296 22.5085C302.255 23.0322 300.946 23.294 299.369 23.294H293.87V20.6491H299.09C300.085 20.6491 300.893 20.5066 301.516 20.2216C302.146 19.9366 302.607 19.5223 302.898 18.9787C303.19 18.4351 303.336 17.7822 303.336 17.0199C303.336 16.2509 303.187 15.5848 302.888 15.0213C302.597 14.4579 302.136 14.027 301.506 13.7287C300.883 13.4238 300.065 13.2713 299.05 13.2713H295.192V31H292.12ZM302.173 21.8125L307.204 31H303.704L298.772 21.8125H302.173Z" fill="#393636"/>
<path d="M34.4859 7.74119L22.5146 0.836341C20.5814 -0.27878 17.4186 -0.27878 15.4854 0.836341L3.51406 7.74119C1.58196 8.85631 0 11.5922 0 13.8224V14.8867V27.6321C0 29.8624 1.58196 32.5993 3.51406 33.7133L14.73 40.1825L15.4854 40.6182C17.4186 41.7333 20.5814 41.7333 22.5146 40.6182L34.4859 33.7133C36.4191 32.5982 38 29.8613 38 27.6321V13.8224C38 11.5922 36.418 8.85631 34.4859 7.74119ZM15.966 32.6003C13.5119 32.6003 11.5215 30.6118 11.5215 28.16V6.76917C13.9544 6.76917 15.9279 8.73971 15.9279 11.1714V23.7589C15.9279 26.2096 17.9151 28.1971 20.3682 28.1992H24.1602C26.5931 28.1992 28.5666 30.1698 28.5666 32.6014H15.966V32.6003Z" fill="url(#paint0_linear_62_300)"/>
<path d="M15.966 32.6003C13.5119 32.6003 11.5215 30.6118 11.5215 28.16V6.76917L0 14.8867V27.6321C0 29.8624 1.58196 32.5993 3.51406 33.7133L14.73 40.1825L28.5645 32.6003H15.966Z" fill="url(#paint1_linear_62_300)"/>
<defs>
<linearGradient id="paint0_linear_62_300" x1="15.1491" y1="23.2772" x2="34.7331" y2="10.2862" gradientUnits="userSpaceOnUse">
<stop stop-color="#3EA6DE"/>
<stop offset="1" stop-color="#2C76C9"/>
</linearGradient>
<linearGradient id="paint1_linear_62_300" x1="2.90846" y1="28.3823" x2="17.8604" y2="21.1893" gradientUnits="userSpaceOnUse">
<stop stop-color="#3EA6DE"/>
<stop offset="1" stop-color="#2C76C9"/>
</linearGradient>
</defs>
</svg>
