<svg width="38" height="42" viewBox="0 0 38 42" fill="none" xmlns="http://www.w3.org/2000/svg">
<path d="M34.4859 7.74119L22.5146 0.836341C20.5814 -0.27878 17.4186 -0.27878 15.4854 0.836341L3.51406 7.74119C1.58196 8.85631 0 11.5922 0 13.8224V14.8867V27.6321C0 29.8624 1.58196 32.5993 3.51406 33.7133L14.73 40.1825L15.4854 40.6182C17.4186 41.7333 20.5814 41.7333 22.5146 40.6182L34.4859 33.7133C36.4191 32.5982 38 29.8613 38 27.6321V13.8224C38 11.5922 36.418 8.85631 34.4859 7.74119ZM15.966 32.6003C13.5119 32.6003 11.5215 30.6118 11.5215 28.16V6.76917C13.9544 6.76917 15.9279 8.73971 15.9279 11.1714V23.7589C15.9279 26.2096 17.9151 28.1971 20.3682 28.1992H24.1602C26.5931 28.1992 28.5666 30.1698 28.5666 32.6014H15.966V32.6003Z" fill="url(#paint0_linear_62_228)"/>
<path d="M15.966 32.6003C13.5119 32.6003 11.5215 30.6118 11.5215 28.16V6.76917L0 14.8867V27.6321C0 29.8624 1.58196 32.5993 3.51406 33.7133L14.73 40.1825L28.5645 32.6003H15.966Z" fill="url(#paint1_linear_62_228)"/>
<defs>
<linearGradient id="paint0_linear_62_228" x1="15.1491" y1="23.2772" x2="34.7331" y2="10.2862" gradientUnits="userSpaceOnUse">
<stop stop-color="#3EA6DE"/>
<stop offset="1" stop-color="#2C76C9"/>
</linearGradient>
<linearGradient id="paint1_linear_62_228" x1="2.90846" y1="28.3823" x2="17.8604" y2="21.1893" gradientUnits="userSpaceOnUse">
<stop stop-color="#3EA6DE"/>
<stop offset="1" stop-color="#2C76C9"/>
</linearGradient>
</defs>
</svg>
