<svg width="24" height="24" viewBox="0 0 24 24" fill="none" xmlns="http://www.w3.org/2000/svg">
<path fill-rule="evenodd" clip-rule="evenodd" d="M4 2.5C4 2.22386 3.77614 2 3.5 2C3.22386 2 3 2.22386 3 2.5V21.5C3 21.7761 3.22386 22 3.5 22C3.77614 22 4 21.7761 4 21.5L4 2.5ZM14.3891 16.9246C14.1938 17.1199 13.8772 17.1199 13.682 16.9246L9.14645 12.3891C8.95118 12.1938 8.95118 11.8772 9.14645 11.682L13.682 7.14645C13.8772 6.95118 14.1938 6.95118 14.3891 7.14645C14.5843 7.34171 14.5843 7.65829 14.3891 7.85355L10.7071 11.5355H21.3995C21.6756 11.5355 21.8995 11.7594 21.8995 12.0355C21.8995 12.3117 21.6756 12.5355 21.3995 12.5355H10.7071L14.3891 16.2175C14.5843 16.4128 14.5843 16.7294 14.3891 16.9246Z" fill="white"/>
</svg>
