<svg width="24" height="27" viewBox="0 0 24 27" fill="none" xmlns="http://www.w3.org/2000/svg">
<path d="M21.6293 5.17163L14.121 0.840954C12.9085 0.141557 10.9248 0.141557 9.71234 0.840954L2.20399 5.17163C0.992196 5.87102 0 7.58694 0 8.98573V9.65322V17.6471C0 19.0459 0.992196 20.7625 2.20399 21.4612L9.23854 25.5186L9.71234 25.7919C10.9248 26.4913 12.9085 26.4913 14.121 25.7919L21.6293 21.4612C22.8418 20.7618 23.8333 19.0452 23.8333 17.6471V8.98573C23.8333 7.58694 22.8411 5.87102 21.6293 5.17163ZM10.0138 20.7631C8.47459 20.7631 7.2262 19.5159 7.2262 17.9782V4.56198C8.75209 4.56198 9.98984 5.79789 9.98984 7.323V15.2178C9.98984 16.7549 11.2362 18.0014 12.7748 18.0028H15.1531C16.679 18.0028 17.9168 19.2387 17.9168 20.7638H10.0138V20.7631Z" fill="url(#paint0_linear_27_25715)"/>
<path d="M10.0138 20.7631C8.47459 20.7631 7.2262 19.5159 7.2262 17.9782V4.56201L0 9.65325V17.6471C0 19.0459 0.992196 20.7625 2.20399 21.4612L9.23854 25.5186L17.9154 20.7631H10.0138Z" fill="url(#paint1_linear_27_25715)"/>
<defs>
<linearGradient id="paint0_linear_27_25715" x1="9.50144" y1="14.9157" x2="21.7843" y2="6.76781" gradientUnits="userSpaceOnUse">
<stop stop-color="white" stop-opacity="0.5"/>
<stop offset="1" stop-color="white"/>
</linearGradient>
<linearGradient id="paint1_linear_27_25715" x1="1.82416" y1="18.1176" x2="11.2019" y2="13.6062" gradientUnits="userSpaceOnUse">
<stop stop-color="white" stop-opacity="0"/>
<stop offset="1" stop-color="white" stop-opacity="0.49"/>
</linearGradient>
</defs>
</svg>
