<svg width="65" height="70" viewBox="0 0 65 70" fill="none" xmlns="http://www.w3.org/2000/svg">
<path d="M58.2329 13.0717L38.0181 1.41224C34.7537 -0.470748 29.4129 -0.470748 26.1486 1.41224L5.93383 13.0717C2.6713 14.9547 0 19.5745 0 23.3405V25.1376V46.6595C0 50.4255 2.6713 55.047 5.93383 56.9282L24.873 67.8521L26.1486 68.5878C29.4129 70.4707 34.7537 70.4707 38.0181 68.5878L58.2329 56.9282C61.4972 55.0453 64.1667 50.4237 64.1667 46.6595V23.3405C64.1667 19.5745 61.4954 14.9547 58.2329 13.0717ZM26.9602 55.0488C22.8162 55.0488 19.4551 51.691 19.4551 47.5509V11.4304C23.5633 11.4304 26.8957 14.7578 26.8957 18.8639V40.1192C26.8957 44.2574 30.2514 47.6135 34.3936 47.6171H40.7969C44.905 47.6171 48.2374 50.9446 48.2374 55.0506H26.9602V55.0488Z" fill="url(#paint0_linear_62_352)"/>
<path d="M26.9602 55.0489C22.8162 55.0489 19.4551 51.691 19.4551 47.5509V11.4304L0 25.1376V46.6595C0 50.4255 2.6713 55.0471 5.93383 56.9283L24.873 67.8521L48.2339 55.0489H26.9602Z" fill="url(#paint1_linear_62_352)"/>
<defs>
<linearGradient id="paint0_linear_62_352" x1="25.5808" y1="39.3057" x2="58.6501" y2="17.3692" gradientUnits="userSpaceOnUse">
<stop stop-color="#F5FCFF"/>
<stop offset="1" stop-color="#95C7FF"/>
</linearGradient>
<linearGradient id="paint1_linear_62_352" x1="4.91121" y1="47.9263" x2="30.159" y2="35.7802" gradientUnits="userSpaceOnUse">
<stop stop-color="white"/>
<stop offset="1" stop-color="#ADD4FF"/>
</linearGradient>
</defs>
</svg>
