<svg width="51" height="37" viewBox="0 0 51 37" fill="none" xmlns="http://www.w3.org/2000/svg">
<path d="M18.1289 23.0977C12.2306 23.0977 0.484375 26.053 0.484375 31.9384V36.3587H35.7734V31.9384C35.7734 26.053 24.0272 23.0977 18.1289 23.0977ZM6.38269 31.3069C8.50003 29.8419 13.6169 28.1495 18.1289 28.1495C22.6408 28.1495 27.7578 29.8419 29.8751 31.3069H6.38269ZM18.1289 18.6774C22.9937 18.6774 26.9511 14.7117 26.9511 9.83674C26.9511 4.96175 22.9937 0.996094 18.1289 0.996094C13.264 0.996094 9.30663 4.96175 9.30663 9.83674C9.30663 14.7117 13.264 18.6774 18.1289 18.6774ZM18.1289 6.04789C20.221 6.04789 21.9099 7.74024 21.9099 9.83674C21.9099 11.9332 20.221 13.6256 18.1289 13.6256C16.0368 13.6256 14.3479 11.9332 14.3479 9.83674C14.3479 7.74024 16.0368 6.04789 18.1289 6.04789ZM35.8742 23.2493C38.7982 25.371 40.8147 28.2 40.8147 31.9384V36.3587H50.8973V31.9384C50.8973 26.836 42.075 23.9313 35.8742 23.2493ZM33.2528 18.6774C38.1176 18.6774 42.075 14.7117 42.075 9.83674C42.075 4.96175 38.1176 0.996094 33.2528 0.996094C31.8916 0.996094 30.6313 1.32446 29.4718 1.88016C31.0598 4.12821 31.9924 6.88144 31.9924 9.83674C31.9924 12.792 31.0598 15.5453 29.4718 17.7933C30.6313 18.349 31.8916 18.6774 33.2528 18.6774Z" fill="url(#paint0_linear_62_315)"/>
<defs>
<linearGradient id="paint0_linear_62_315" x1="25.6908" y1="0.996094" x2="25.6908" y2="36.3587" gradientUnits="userSpaceOnUse">
<stop stop-color="#49B1FE"/>
<stop offset="1" stop-color="#04EEFE"/>
</linearGradient>
</defs>
</svg>
