<svg width="17" height="10" viewBox="0 0 17 10" fill="none" xmlns="http://www.w3.org/2000/svg">
<path d="M8.38552 9.69787C8.17752 9.58566 8.04785 9.37228 8.04785 9.14021V5.52648H0.912472C0.552178 5.52648 0.259766 5.24085 0.259766 4.88891C0.259766 4.53697 0.552178 4.25134 0.912472 4.25134H8.04785V0.637613C8.04785 0.404688 8.17752 0.191316 8.38552 0.0799538C8.59352 -0.0331081 8.84764 -0.0254573 9.04867 0.0978057L15.9552 4.3491C16.1449 4.46642 16.2598 4.66959 16.2598 4.88891C16.2598 5.10823 16.1449 5.31141 15.9552 5.42872L9.04867 9.68002C8.9425 9.74462 8.82153 9.77778 8.70056 9.77778C8.59265 9.77778 8.48386 9.75058 8.38552 9.69787Z" fill="white"/>
</svg>
