<svg width="118" height="128" viewBox="0 0 118 128" fill="none" xmlns="http://www.w3.org/2000/svg">
<path d="M92.6667 122.312H0V0.6875H63.7083L92.6667 29.6458V122.312Z" fill="#69A4FE"/>
<path d="M88.3229 32.5417H60.8125V5.03125L88.3229 32.5417Z" fill="#C5DCFF"/>
<path d="M23.168 55.7083C23.168 54.109 24.4645 52.8125 26.0638 52.8125H69.5013C71.1006 52.8125 72.3971 54.109 72.3971 55.7083C72.3971 57.3077 71.1006 58.6042 69.5013 58.6042H26.0638C24.4645 58.6042 23.168 57.3077 23.168 55.7083Z" fill="#F3F8FF"/>
<path d="M23.168 67.2916C23.168 65.6923 24.4645 64.3958 26.0638 64.3958H57.918C59.5173 64.3958 60.8138 65.6923 60.8138 67.2916C60.8138 68.891 59.5173 70.1875 57.918 70.1875H26.0638C24.4645 70.1875 23.168 68.891 23.168 67.2916Z" fill="#F3F8FF"/>
<path d="M23.168 78.875C23.168 77.2757 24.4645 75.9792 26.0638 75.9792H69.5013C71.1006 75.9792 72.3971 77.2757 72.3971 78.875C72.3971 80.4743 71.1006 81.7708 69.5013 81.7708H26.0638C24.4645 81.7708 23.168 80.4743 23.168 78.875Z" fill="#F3F8FF"/>
<path d="M23.168 90.4583C23.168 88.859 24.4645 87.5625 26.0638 87.5625H57.918C59.5173 87.5625 60.8138 88.859 60.8138 90.4583C60.8138 92.0577 59.5173 93.3542 57.918 93.3542H26.0638C24.4645 93.3542 23.168 92.0577 23.168 90.4583Z" fill="#F3F8FF"/>
<path d="M88.6672 98.7604C87.0785 97.8432 85.8368 96.4274 85.1348 94.7326C84.4328 93.0378 84.3096 91.1587 84.7844 89.3867C85.2592 87.6148 86.3054 86.049 87.7608 84.9323C89.2162 83.8155 90.9994 83.2102 92.8338 83.2102C94.6683 83.2102 96.4515 83.8155 97.9068 84.9323C99.3622 86.049 100.408 87.6148 100.883 89.3867C101.358 91.1587 101.235 93.0378 100.533 94.7326C99.8308 96.4274 98.5892 97.8432 97.0005 98.7604V112.375H88.6672V98.7604ZM76.1672 114.458H109.5C110.606 114.458 111.665 114.897 112.447 115.679C113.228 116.46 113.667 117.52 113.667 118.625V122.792H72.0005V118.625C72.0005 117.52 72.4395 116.46 73.2209 115.679C74.0023 114.897 75.0621 114.458 76.1672 114.458Z" fill="#ACCDFF"/>
</svg>
