<svg width="24" height="25" viewBox="0 0 24 25" fill="none" xmlns="http://www.w3.org/2000/svg">
<g clip-path="url(#clip0_27_25729)">
<path fill-rule="evenodd" clip-rule="evenodd" d="M9.14283 6.13007C5.98725 6.13007 3.42856 8.68875 3.42856 11.8443V12.1826C3.42856 13.6067 2.67075 14.9283 1.43923 15.6343L1.43892 15.6345C0.669517 16.0762 0 16.7106 0 17.5586C0 18.2033 0.392428 18.7265 0.89133 19.1197C1.39666 19.5179 2.09246 19.8516 2.90131 20.1211C4.52497 20.6623 6.73167 20.9872 9.14283 20.9872C11.554 20.9872 13.7607 20.6623 15.3844 20.1211C16.1932 19.8516 16.889 19.5179 17.3943 19.1197C17.8932 18.7265 18.2857 18.2033 18.2857 17.5586C18.2857 16.7106 17.6162 16.0762 16.8468 15.6345L16.8461 15.6341C15.6151 14.9294 14.8571 13.607 14.8571 12.1826V11.8443C14.8571 8.68875 12.2984 6.13007 9.14283 6.13007ZM4.57142 11.8443C4.57142 9.31994 6.61843 7.27292 9.14283 7.27292C11.6672 7.27292 13.7143 9.31994 13.7143 11.8443V12.1826C13.7143 14.0106 14.6863 15.7143 16.2777 16.6256C16.9735 17.025 17.1428 17.3644 17.1428 17.5586C17.1428 17.7031 17.0555 17.9316 16.6869 18.2221C16.3248 18.5075 15.7653 18.7895 15.023 19.0369C13.5444 19.5297 11.4654 19.8443 9.14283 19.8443C6.8203 19.8443 4.74129 19.5297 3.26268 19.0369C2.52039 18.7895 1.96091 18.5075 1.59873 18.2221C1.23014 17.9316 1.14285 17.7031 1.14285 17.5586C1.14285 17.3644 1.31219 17.025 2.00793 16.6256C3.59907 15.7133 4.57142 14.011 4.57142 12.1826V11.8443ZM12.2859 22.3589C12.4123 22.0697 12.2803 21.7329 11.9912 21.6064C11.702 21.48 11.3651 21.612 11.2387 21.9011C10.8852 22.7098 10.079 23.2729 9.14285 23.2729C8.20693 23.2729 7.4014 22.71 7.0467 21.9016C6.91989 21.6126 6.58282 21.4811 6.29383 21.6079C6.00483 21.7347 5.87335 22.0718 6.00015 22.3608C6.53002 23.5684 7.73591 24.4157 9.14285 24.4157C10.5495 24.4157 11.7571 23.5686 12.2859 22.3589Z" fill="#16166B"/>
</g>
<circle cx="16.5714" cy="7.74496" r="7.42855" fill="#F42A4D"/>
<path d="M18.05 9.05984C18.05 8.60517 17.8868 8.21834 17.5605 7.89934C17.2342 7.58034 16.829 7.42084 16.345 7.42084C16.1983 7.42084 16.048 7.44467 15.894 7.49234L15.4925 6.98084L17.4725 4.64334H14.4255V3.74684H18.71V4.64334L16.873 6.76634C17.5257 6.814 18.0537 7.06334 18.457 7.51434C18.864 7.96167 19.0675 8.508 19.0675 9.15334C19.0675 9.46134 19.0033 9.76017 18.875 10.0498C18.7467 10.3395 18.5688 10.598 18.3415 10.8253C18.1142 11.0527 17.83 11.236 17.489 11.3753C17.148 11.511 16.7777 11.5788 16.378 11.5788C15.8683 11.5788 15.41 11.4688 15.003 11.2488C14.5997 11.0288 14.2642 10.7153 13.9965 10.3083L14.695 9.72534C15.124 10.3743 15.674 10.6988 16.345 10.6988C16.829 10.6988 17.2342 10.5412 17.5605 10.2258C17.8868 9.90684 18.05 9.51817 18.05 9.05984Z" fill="white"/>
<defs>
<clipPath id="clip0_27_25729">
<rect width="18.2857" height="18.2857" fill="white" transform="translate(0 6.13007)"/>
</clipPath>
</defs>
</svg>
