<svg width="19" height="19" viewBox="0 0 19 19" fill="none" xmlns="http://www.w3.org/2000/svg">
<g id="Medium/Bell" clip-path="url(#clip0_27_28172)">
<path id="Union" fill-rule="evenodd" clip-rule="evenodd" d="M9.14283 0.130066C5.98725 0.130066 3.42856 2.68875 3.42856 5.84434V6.18262C3.42856 7.60673 2.67075 8.92829 1.43923 9.6343L1.43892 9.63448C0.669517 10.0762 0 10.7106 0 11.5586C0 12.2033 0.392428 12.7265 0.89133 13.1197C1.39666 13.5179 2.09246 13.8516 2.90131 14.1211C4.52497 14.6623 6.73167 14.9872 9.14283 14.9872C11.554 14.9872 13.7607 14.6623 15.3844 14.1211C16.1932 13.8516 16.889 13.5179 17.3943 13.1197C17.8932 12.7265 18.2857 12.2033 18.2857 11.5586C18.2857 10.7106 17.6162 10.0762 16.8468 9.63447L16.8461 9.63413C15.6151 8.92938 14.8571 7.60695 14.8571 6.18262V5.84434C14.8571 2.68875 12.2984 0.130066 9.14283 0.130066ZM4.57142 5.84434C4.57142 3.31994 6.61843 1.27292 9.14283 1.27292C11.6672 1.27292 13.7143 3.31994 13.7143 5.84434V6.18262C13.7143 8.01062 14.6863 9.71427 16.2777 10.6256C16.9735 11.025 17.1428 11.3644 17.1428 11.5586C17.1428 11.7031 17.0555 11.9316 16.6869 12.2221C16.3248 12.5075 15.7653 12.7895 15.023 13.0369C13.5444 13.5297 11.4654 13.8443 9.14283 13.8443C6.8203 13.8443 4.74129 13.5297 3.26268 13.0369C2.52039 12.7895 1.96091 12.5075 1.59873 12.2221C1.23014 11.9316 1.14285 11.7031 1.14285 11.5586C1.14285 11.3644 1.31219 11.025 2.00793 10.6256C3.59907 9.71329 4.57142 8.01096 4.57142 6.18262V5.84434ZM12.2859 16.3589C12.4123 16.0697 12.2803 15.7329 11.9912 15.6064C11.702 15.48 11.3651 15.612 11.2387 15.9011C10.8852 16.7098 10.079 17.2729 9.14285 17.2729C8.20693 17.2729 7.4014 16.71 7.0467 15.9016C6.91989 15.6126 6.58282 15.4811 6.29383 15.6079C6.00483 15.7347 5.87335 16.0718 6.00015 16.3608C6.53002 17.5684 7.73591 18.4157 9.14285 18.4157C10.5495 18.4157 11.7571 17.5686 12.2859 16.3589Z" fill="#16166B"/>
</g>
<defs>
<clipPath id="clip0_27_28172">
<rect width="18.2857" height="18.2857" fill="white" transform="translate(0 0.130066)"/>
</clipPath>
</defs>
</svg>
