<svg width="53" height="54" viewBox="0 0 53 54" fill="none" xmlns="http://www.w3.org/2000/svg">
<g clip-path="url(#clip0_134_7832)">
<path d="M16.6737 18.3728C18.1032 18.3728 19.4743 17.8048 20.4851 16.7939C21.4958 15.7833 22.0637 14.4123 22.0637 12.9828C22.0637 11.5532 21.4958 10.1822 20.4851 9.17162C19.4743 8.16075 18.1032 7.59277 16.6737 7.59277C15.2442 7.59277 13.8734 8.1607 12.8625 9.17162C11.8517 10.1823 11.2837 11.5532 11.2837 12.9828C11.2859 14.4118 11.8544 15.7814 12.8647 16.7918C13.8751 17.8021 15.245 18.3706 16.6737 18.3728ZM16.6737 8.57277C17.8435 8.57277 18.9651 9.03734 19.792 9.86448C20.6191 10.6913 21.0837 11.8133 21.0837 12.9828C21.0837 14.1523 20.6191 15.2742 19.792 16.1011C18.9651 16.9282 17.8435 17.3928 16.6737 17.3928C15.5042 17.3928 14.3826 16.9282 13.5554 16.1011C12.7283 15.2742 12.2637 14.1523 12.2637 12.9828C12.2659 11.8138 12.731 10.6933 13.5576 9.86665C14.3842 9.04002 15.5047 8.57494 16.6737 8.57277Z" fill="#2C76C9"/>
<path d="M16.6737 14.6805C16.3434 14.6764 16.0779 14.4074 16.0779 14.0771C16.0779 13.8064 15.8586 13.5871 15.5879 13.5871C15.3175 13.5871 15.0979 13.8064 15.0979 14.0771C15.0974 14.4104 15.2032 14.7355 15.3998 15.0048C15.5964 15.2739 15.8739 15.4735 16.1916 15.5744V15.8057C16.1916 16.0764 16.4109 16.2957 16.6816 16.2957C16.9523 16.2957 17.1716 16.0764 17.1716 15.8057V15.5744C17.6767 15.4404 18.0816 15.0639 18.252 14.57C18.4224 14.0759 18.3354 13.5299 18.0204 13.1132C17.7051 12.6965 17.2034 12.4641 16.6817 12.4933C16.4375 12.4933 16.2174 12.3462 16.1239 12.1206C16.0306 11.895 16.082 11.6356 16.2548 11.4627C16.4274 11.2902 16.6871 11.2385 16.9127 11.332C17.1383 11.4253 17.2854 11.6454 17.2854 11.8896C17.2854 12.1603 17.5047 12.3796 17.7754 12.3796C18.0458 12.3796 18.2654 12.1603 18.2654 11.8896C18.266 11.5563 18.1601 11.2311 17.9635 10.9618C17.7669 10.6927 17.4894 10.4931 17.1717 10.3922V10.1609C17.1717 9.89019 16.9524 9.6709 16.6817 9.6709C16.411 9.6709 16.1917 9.89019 16.1917 10.1609V10.3922C15.6867 10.5262 15.2817 10.9027 15.1113 11.3966C14.941 11.8907 15.0279 12.4367 15.3429 12.8534C15.6582 13.2701 16.16 13.5026 16.6817 13.4733C17.015 13.4733 17.2854 13.7435 17.2854 14.0771C17.2854 14.4104 17.015 14.6805 16.6817 14.6805H16.6737Z" fill="#2C76C9"/>
<path d="M23.8628 10.0161H27.7046C27.975 10.0161 28.1946 9.79656 28.1946 9.52613C28.1946 9.25543 27.975 9.03613 27.7046 9.03613H23.8628C23.5924 9.03613 23.3728 9.25543 23.3728 9.52613C23.3728 9.79656 23.5924 10.0161 23.8628 10.0161Z" fill="#2C76C9"/>
<path d="M23.8628 15.4331H27.7046C27.975 15.4331 28.1946 15.2138 28.1946 14.9431C28.1946 14.6724 27.975 14.4531 27.7046 14.4531H23.8628C23.5924 14.4531 23.3728 14.6724 23.3728 14.9431C23.3728 15.2138 23.5924 15.4331 23.8628 15.4331Z" fill="#2C76C9"/>
<path d="M20.1939 20.9209H13.1379C12.8675 20.9209 12.6479 21.1405 12.6479 21.4109C12.6479 21.6816 12.8675 21.9009 13.1379 21.9009H20.1939C20.4647 21.9009 20.6839 21.6816 20.6839 21.4109C20.6839 21.1405 20.4647 20.9209 20.1939 20.9209Z" fill="#2C76C9"/>
<path d="M13.1541 26.7935H18.3833C18.6537 26.7935 18.8733 26.5739 18.8733 26.3035C18.8733 26.0328 18.6537 25.8135 18.3833 25.8135H13.1541C12.8834 25.8135 12.6641 26.0328 12.6641 26.3035C12.6641 26.5739 12.8834 26.7935 13.1541 26.7935Z" fill="#2C76C9"/>
<path d="M20.1939 30.7061H13.1379C12.8675 30.7061 12.6479 30.9254 12.6479 31.1961C12.6479 31.4668 12.8675 31.6861 13.1379 31.6861H20.1939C20.4647 31.6861 20.6839 31.4668 20.6839 31.1961C20.6839 30.9254 20.4647 30.7061 20.1939 30.7061Z" fill="#2C76C9"/>
<path d="M37.0927 30.819C36.8037 30.557 36.4245 30.4165 36.0346 30.4269C35.8399 30.4307 35.6479 30.4734 35.4699 30.5524L34.2665 29.3646C35.3715 27.6717 35.6972 25.5865 35.1612 23.6372C34.625 21.6881 33.2788 20.0626 31.4638 19.1728V7.66338C31.4638 7.12498 31.25 6.60848 30.8691 6.22754C30.4882 5.8466 29.9717 5.63281 29.4332 5.63281H10.9546C10.4162 5.63281 9.89974 5.84664 9.5188 6.22754C9.13786 6.60844 8.92407 7.12494 8.92407 7.66338V33.982C8.92407 34.5204 9.1379 35.0369 9.5188 35.4178C9.8997 35.7988 10.4162 36.0126 10.9546 36.0126H29.4332C29.9716 36.0126 30.4881 35.7987 30.8691 35.4178C31.25 35.0369 31.4638 34.5204 31.4638 33.982V31.8415C31.8116 31.6712 32.1447 31.4718 32.4594 31.2457L33.6666 32.4218H33.6669C33.5958 32.6028 33.5611 32.7958 33.5649 32.9902C33.5745 33.3845 33.7394 33.7594 34.0235 34.0329L37.7356 37.5884H37.7359C38.0151 37.8463 38.3829 37.9868 38.763 37.9805H38.8138C39.2005 37.9674 39.5666 37.8025 39.8329 37.5217L40.8521 36.4632L40.8523 36.4635C41.1296 36.178 41.2808 35.793 41.2721 35.3952C41.2631 34.9973 41.0949 34.6194 40.8053 34.3466L37.0927 30.819ZM30.4838 33.9941C30.4838 34.2728 30.373 34.5399 30.1761 34.737C29.979 34.9339 29.7119 35.0447 29.4332 35.0447H10.9546C10.676 35.0447 10.4089 34.9339 10.2117 34.737C10.0149 34.5399 9.90411 34.2727 9.90411 33.9941V7.66363C9.90411 7.385 10.0149 7.11785 10.2117 6.92072C10.4089 6.72385 10.676 6.61311 10.9546 6.61311H29.4332C29.7119 6.61311 29.979 6.72385 30.1761 6.92072C30.373 7.11787 30.4838 7.38502 30.4838 7.66363V18.7768C28.3119 18.0861 25.9403 18.487 24.1162 19.8531C22.2921 21.2189 21.2399 23.3818 21.2914 25.6604C21.3305 27.5058 22.0909 29.2623 23.41 30.5535C24.7291 31.8446 26.5015 32.5676 28.3474 32.5674C29.0707 32.5655 29.7898 32.4545 30.48 32.2379L30.4838 33.9941ZM28.4846 31.6029C26.8689 31.6377 25.3059 31.0282 24.1403 29.9087C22.9747 28.7896 22.3022 27.2526 22.2714 25.6368C22.2377 24.023 22.8467 22.4622 23.9642 21.2977C25.0818 20.1331 26.6161 19.4605 28.2299 19.4273H28.3631C30.4633 19.5094 32.3725 20.6696 33.4127 22.4959C34.4528 24.3222 34.4763 26.5561 33.4755 28.4043C32.4745 30.2521 30.5905 31.4529 28.4924 31.5794L28.4846 31.6029ZM33.2162 30.6268C33.2947 30.5524 33.377 30.4857 33.4552 30.4072C33.5337 30.3287 33.5963 30.2426 33.6668 30.1603L34.7135 31.16L34.2626 31.6029L33.2162 30.6268ZM40.1426 35.7857L39.1274 36.8442V36.8439C39.0352 36.9407 38.9083 36.9973 38.7746 37.0009C38.6401 37.0044 38.5102 36.9536 38.414 36.8598L34.7018 33.3043C34.5052 33.1068 34.5052 32.788 34.7018 32.5909L35.7209 31.5286C35.9167 31.3325 36.2344 31.3325 36.4305 31.5286L40.1427 35.0841V35.0838C40.3333 35.279 40.3333 35.5905 40.1427 35.7857L40.1426 35.7857Z" fill="#2C76C9"/>
<path d="M31.8603 21.8498C30.8904 20.9195 29.5905 20.4129 28.2468 20.4416C26.9032 20.47 25.6259 21.0317 24.6965 22.0024C23.7671 22.9731 23.2615 24.2732 23.291 25.617C23.3208 26.9404 23.8666 28.1998 24.8121 29.1263C25.7577 30.0529 27.028 30.573 28.3517 30.5758H28.4617C29.8053 30.5482 31.0828 29.9879 32.013 29.0177C32.9436 28.0479 33.4499 26.7476 33.4212 25.404C33.3925 24.0603 32.8309 22.7831 31.8602 21.8536L31.8603 21.8498ZM28.442 29.5918C27.3592 29.6147 26.3117 29.2071 25.5297 28.4579C24.7474 27.7089 24.2948 26.68 24.2711 25.5972C24.2448 24.5122 24.6512 23.461 25.4004 22.6758C26.1499 21.8904 27.1805 21.4354 28.2658 21.4106H28.356C29.8151 21.3953 31.1719 22.1595 31.9148 23.4157C32.6577 24.6719 32.6745 26.2289 31.958 27.5004C31.2416 28.7719 29.9015 29.5646 28.4421 29.5802L28.442 29.5918Z" fill="#2C76C9"/>
</g>
<defs>
<clipPath id="clip0_134_7832">
<rect width="51.5941" height="52.8744" fill="white" transform="translate(0.593994 0.203125)"/>
</clipPath>
</defs>
</svg>
