<svg width="20" height="21" viewBox="0 0 20 21" fill="none" xmlns="http://www.w3.org/2000/svg">
<path fill-rule="evenodd" clip-rule="evenodd" d="M10 1.56641C5.16751 1.56641 1.25 5.48391 1.25 10.3164C1.25 15.1489 5.16751 19.0664 10 19.0664C14.8325 19.0664 18.75 15.1489 18.75 10.3164C18.75 5.48391 14.8325 1.56641 10 1.56641ZM0 10.3164C0 4.79356 4.47715 0.316406 10 0.316406C15.5228 0.316406 20 4.79356 20 10.3164C20 15.8393 15.5228 20.3164 10 20.3164C4.47715 20.3164 0 15.8393 0 10.3164ZM10.0038 16.5664C10.6941 16.5664 11.2538 16.0068 11.2538 15.3164C11.2538 14.626 10.6941 14.0664 10.0038 14.0664C9.31344 14.0664 8.75379 14.626 8.75379 15.3164C8.75379 16.0068 9.31344 16.5664 10.0038 16.5664ZM8.54373 5.87671C8.9877 5.47607 9.7439 5.25001 10.4477 5.33337C11.1309 5.41428 11.6336 5.76011 11.8009 6.37143L11.8012 6.37261C11.9282 6.83286 11.8704 7.12596 11.7469 7.37671C11.6063 7.66231 11.3722 7.91876 11.0293 8.29437L10.9886 8.33895C10.6443 8.71634 10.2309 9.18052 9.91251 9.80202C9.58901 10.4334 9.375 11.2019 9.375 12.1915C9.375 12.5366 9.65483 12.8165 10 12.8165C10.3452 12.8165 10.625 12.5366 10.625 12.1915C10.625 11.3948 10.7943 10.8223 11.025 10.372C11.2608 9.91178 11.5726 9.55346 11.912 9.18148L11.9907 9.09552L11.9907 9.0955C12.2936 8.76526 12.6455 8.38149 12.8684 7.92887C13.1334 7.39055 13.2106 6.78164 13.0064 6.04091C12.6673 4.80263 11.6265 4.21425 10.5948 4.09205C9.58361 3.97229 8.45356 4.27436 7.70628 4.94871C7.45002 5.17996 7.42975 5.57517 7.661 5.83143C7.89226 6.0877 8.28747 6.10797 8.54373 5.87671Z" fill="#16166B"/>
</svg>
