<svg width="24" height="25" viewBox="0 0 24 25" fill="none" xmlns="http://www.w3.org/2000/svg">
<path fill-rule="evenodd" clip-rule="evenodd" d="M9.98422 1.74034C9.70808 1.74034 9.48422 1.9642 9.48422 2.24034V4.84387C8.47906 5.18219 7.56404 5.71561 6.78496 6.40207L4.53105 5.10033C4.41621 5.034 4.27972 5.01602 4.15162 5.05033C4.02351 5.08465 3.91429 5.16845 3.84798 5.2833L1.8327 8.77376C1.69463 9.01289 1.77655 9.31867 2.01567 9.45676L4.2719 10.7597C4.16939 11.2601 4.11015 11.7794 4.11015 12.3167C4.11015 12.853 4.1694 13.3729 4.27193 13.8738L2.01567 15.1767C1.77655 15.3148 1.69463 15.6206 1.8327 15.8597L3.84798 19.3502C3.98604 19.5893 4.29181 19.6712 4.53095 19.5332L6.78603 18.2315C7.5643 18.9179 8.47941 19.4513 9.48557 19.7887V22.3931C9.48557 22.6693 9.70942 22.8931 9.98557 22.8931H14.0161C14.2923 22.8931 14.5161 22.6693 14.5161 22.3931V19.7897C15.5222 19.4514 16.4364 18.918 17.2152 18.2325L19.4707 19.5345C19.7099 19.6726 20.0156 19.5906 20.1537 19.3515L22.169 15.861C22.3071 15.6219 22.2251 15.3161 21.986 15.178L19.7285 13.8744C19.8295 13.3734 19.8889 12.8535 19.8889 12.3167C19.8889 11.7794 19.8296 11.2601 19.7271 10.7597L21.9833 9.45676C22.2225 9.31867 22.3044 9.01289 22.1663 8.77376L20.151 5.2833C20.0847 5.16845 19.9755 5.08465 19.8474 5.05033C19.7193 5.01602 19.5828 5.034 19.468 5.10033L17.2143 6.40194C16.436 5.71549 15.5209 5.18216 14.5148 4.84475V2.24034C14.5148 1.9642 14.2909 1.74034 14.0148 1.74034H9.98422ZM10.4842 5.2122V2.74034H13.5148V5.21355C13.5148 5.43737 13.6635 5.63392 13.8789 5.69474C14.9922 6.00905 15.9902 6.59381 16.7967 7.37777C16.9571 7.53369 17.2015 7.56409 17.3952 7.45221L19.535 6.21638L21.0503 8.84079L18.9077 10.0781C18.7144 10.1897 18.6185 10.416 18.6728 10.6326C18.8093 11.1774 18.8889 11.7383 18.8889 12.3167C18.8889 12.8939 18.8093 13.4568 18.6749 14.0046C18.6219 14.2206 18.7179 14.4456 18.9104 14.5568L21.053 15.794L19.5377 18.4185L17.3965 17.1825C17.203 17.0709 16.959 17.1011 16.7986 17.2565C15.9903 18.0397 14.9932 18.6246 13.8798 18.9402C13.6646 19.0012 13.5161 19.1976 13.5161 19.4213V21.8931H10.4856V19.4199C10.4856 19.1961 10.3368 18.9995 10.1214 18.9387C9.00816 18.6244 8.01018 18.0397 7.20367 17.2557C7.0433 17.0998 6.7989 17.0694 6.6052 17.1812L4.46401 18.4172L2.94871 15.7927L5.09127 14.5554C5.28462 14.4438 5.38051 14.2175 5.32624 14.0009C5.18973 13.4561 5.11015 12.8939 5.11015 12.3167C5.11015 11.7383 5.18972 11.1774 5.32624 10.6326C5.38051 10.416 5.28462 10.1897 5.09127 10.0781L2.94871 8.84079L4.46396 6.21638L6.60376 7.45221C6.79735 7.56402 7.04163 7.53373 7.20205 7.37804C8.01009 6.5938 9.0084 6.00887 10.1207 5.69321C10.3358 5.63217 10.4842 5.43578 10.4842 5.2122ZM8.74854 12.3164C8.74854 10.5215 10.2036 9.0664 11.9985 9.0664C13.7935 9.0664 15.2485 10.5215 15.2485 12.3164C15.2485 14.1113 13.7935 15.5664 11.9985 15.5664C10.2036 15.5664 8.74854 14.1113 8.74854 12.3164ZM11.9985 8.0664C9.65133 8.0664 7.74854 9.96919 7.74854 12.3164C7.74854 14.6636 9.65133 16.5664 11.9985 16.5664C14.3457 16.5664 16.2485 14.6636 16.2485 12.3164C16.2485 9.96919 14.3457 8.0664 11.9985 8.0664Z" fill="white"/>
</svg>
