<svg width="23" height="14" viewBox="0 0 23 14" fill="none" xmlns="http://www.w3.org/2000/svg">
<path d="M11.6808 13.8856C11.3818 13.7249 11.1954 13.4194 11.1954 13.0871V7.91291H0.938265C0.420343 7.91291 0 7.50394 0 7.00003C0 6.49612 0.420343 6.08715 0.938265 6.08715H11.1954V0.912946C11.1954 0.57944 11.3818 0.273929 11.6808 0.114479C11.9798 -0.0474048 12.3451 -0.0364502 12.634 0.14004L22.5621 6.22713C22.8349 6.3951 23 6.686 23 7.00003C23 7.31406 22.8349 7.60497 22.5621 7.77294L12.634 13.86C12.4814 13.9525 12.3075 14 12.1336 14C11.9785 14 11.8221 13.9611 11.6808 13.8856Z" fill="#BBBBBB"/>
</svg>
