<svg width="19" height="18" viewBox="0 0 19 18" fill="none" xmlns="http://www.w3.org/2000/svg">
<path fill-rule="evenodd" clip-rule="evenodd" d="M1 8.01259C1 4.0519 4.90551 1 9.59965 1C14.2938 1 18.1993 4.0519 18.1993 8.01259C18.1993 9.69465 17.4505 11.2124 16.273 12.4264L16.7012 16.0901C16.7164 16.2196 16.6612 16.3474 16.556 16.4263C16.4508 16.5052 16.3113 16.5234 16.1889 16.4743L11.8971 14.7509C11.1469 14.9573 10.3998 15.0252 9.59965 15.0252C4.90551 15.0252 1 11.9733 1 8.01259ZM9.59965 1.73817C5.17068 1.73817 1.7478 4.5916 1.7478 8.01259C1.7478 11.4336 5.17068 14.287 9.59965 14.287C10.3991 14.287 11.1082 14.2152 11.8104 14.0073C11.8921 13.9831 11.9797 13.9872 12.0587 14.0189L15.886 15.5558L15.5097 12.3363C15.4966 12.2243 15.536 12.1126 15.6167 12.033C16.759 10.9055 17.4515 9.51854 17.4515 8.01259C17.4515 4.5916 14.0286 1.73817 9.59965 1.73817Z" fill="white" stroke="white" stroke-miterlimit="10" stroke-linecap="round" stroke-linejoin="round"/>
</svg>
