<svg width="16" height="15" viewBox="0 0 16 15" fill="none" xmlns="http://www.w3.org/2000/svg">
<path fill-rule="evenodd" clip-rule="evenodd" d="M7.8379 0.181641C7.97447 0.181641 8.09979 0.257301 8.16339 0.378148L15.5197 14.3552C15.5797 14.4692 15.5757 14.6063 15.5091 14.7166C15.4425 14.8269 15.3231 14.8943 15.1942 14.8943H0.481586C0.352745 14.8943 0.233296 14.8269 0.166706 14.7166C0.100115 14.6063 0.0960914 14.4692 0.156099 14.3552L7.51242 0.378148C7.57602 0.257301 7.70134 0.181641 7.8379 0.181641ZM14.585 14.1586L7.8379 1.33919L1.09082 14.1586H14.585ZM7.83303 6.0668C8.03617 6.0668 8.20085 6.23148 8.20085 6.43462V9.37714C8.20085 9.58028 8.03617 9.74496 7.83303 9.74496C7.62989 9.74496 7.46521 9.58028 7.46521 9.37714V6.43462C7.46521 6.23148 7.62989 6.0668 7.83303 6.0668ZM8.57491 11.5848C8.57491 11.9911 8.24556 12.3204 7.83928 12.3204C7.433 12.3204 7.10365 11.9911 7.10365 11.5848C7.10365 11.1785 7.433 10.8492 7.83928 10.8492C8.24556 10.8492 8.57491 11.1785 8.57491 11.5848Z" fill="white"/>
</svg>
