<svg width="20" height="20" viewBox="0 0 20 20" fill="none" xmlns="http://www.w3.org/2000/svg">
<g id="Group">
<path id="Vector" d="M9.57129 9.57129C10.8405 9.57129 12.0578 9.06709 12.9553 8.16961C13.8527 7.27212 14.3569 6.05488 14.3569 4.78564C14.3569 3.51641 13.8527 2.29917 12.9553 1.40168C12.0578 0.504201 10.8405 0 9.57129 0C8.30206 0 7.08481 0.504201 6.18733 1.40168C5.28984 2.29917 4.78564 3.51641 4.78564 4.78564C4.78564 6.05488 5.28984 7.27212 6.18733 8.16961C7.08481 9.06709 8.30206 9.57129 9.57129 9.57129ZM12.7617 4.78564C12.7617 5.6318 12.4256 6.4433 11.8273 7.04162C11.2289 7.63994 10.4174 7.97607 9.57129 7.97607C8.72513 7.97607 7.91364 7.63994 7.31531 7.04162C6.71699 6.4433 6.38086 5.6318 6.38086 4.78564C6.38086 3.93949 6.71699 3.12799 7.31531 2.52967C7.91364 1.93135 8.72513 1.59521 9.57129 1.59521C10.4174 1.59521 11.2289 1.93135 11.8273 2.52967C12.4256 3.12799 12.7617 3.93949 12.7617 4.78564ZM19.1426 17.5474C19.1426 19.1426 17.5474 19.1426 17.5474 19.1426H1.59521C1.59521 19.1426 0 19.1426 0 17.5474C0 15.9521 1.59521 11.1665 9.57129 11.1665C17.5474 11.1665 19.1426 15.9521 19.1426 17.5474ZM17.5474 17.541C17.5458 17.1486 17.3017 15.9681 16.2201 14.8865C15.1801 13.8465 13.2227 12.7617 9.57129 12.7617C5.91825 12.7617 3.96251 13.8465 2.92243 14.8865C1.84088 15.9681 1.59841 17.1486 1.59521 17.541H17.5474Z" fill="#676D74"/>
</g>
</svg>
