<svg width="80" height="80" viewBox="0 0 80 80" fill="none" xmlns="http://www.w3.org/2000/svg">
<rect width="80" height="80" rx="5" fill="#F0F3F8"/>
<path d="M48.0893 36.7856L47.8022 36.6828L45.37 32.1228C44.9132 31.2658 44.2321 30.5492 43.3994 30.0494C42.5668 29.5497 41.614 29.2857 40.6429 29.2856H34.5186C33.394 29.2856 32.2979 29.6395 31.3856 30.2972C30.4733 30.9548 29.7911 31.8829 29.4357 32.9499L28.2765 36.4278C27.3052 36.8372 26.4763 37.5239 25.8935 38.4021C25.3107 39.2803 24.9999 40.3109 25 41.3649V43.7499C25 45.2714 25.9065 46.5785 27.2072 47.1678C27.3756 48.1329 27.8696 49.0111 28.6069 49.6563C29.3442 50.3014 30.2803 50.6744 31.2592 50.7133C32.2381 50.7521 33.2008 50.4544 33.9868 49.8697C34.7729 49.285 35.3349 48.4486 35.5793 47.4999H44.4207C44.6651 48.4486 45.2271 49.285 46.0132 49.8697C46.7993 50.4544 47.762 50.7521 48.7409 50.7133C49.7198 50.6744 50.6559 50.3014 51.3931 49.6563C52.1304 49.0111 52.6244 48.1329 52.7929 47.1678C53.4507 46.8709 54.0088 46.3905 54.4003 45.7842C54.7918 45.178 55 44.4716 55 43.7499V43.0235C54.9999 41.9176 54.6575 40.8389 54.0198 39.9354C53.3822 39.0318 52.4805 38.3478 51.4386 37.9771L48.2029 36.8264V36.7856H48.0893ZM34.5186 31.4285H36.7857V36.7856H30.415L31.4672 33.6271C31.6805 32.9866 32.0901 32.4295 32.6378 32.0349C33.1855 31.6403 33.8435 31.4281 34.5186 31.4285ZM38.9286 31.4285H40.6429C41.2256 31.4283 41.7974 31.5865 42.2972 31.8862C42.7969 32.1859 43.2058 32.6158 43.48 33.1299L45.43 36.7856H38.9286V31.4285ZM47.7207 38.9285L50.7207 39.9956C51.3458 40.2181 51.8867 40.6286 52.2692 41.1707C52.6517 41.7128 52.8571 42.36 52.8572 43.0235V43.7499C52.8572 44.1249 52.7286 44.4699 52.5143 44.7442C52.1633 43.9203 51.563 43.2271 50.7978 42.7619C50.0326 42.2967 49.1409 42.0829 48.2479 42.1505C47.355 42.2182 46.5056 42.5638 45.8192 43.1389C45.1327 43.714 44.6437 44.4897 44.4207 45.3571H35.5793C35.3564 44.4897 34.8673 43.714 34.1809 43.1389C33.4945 42.5638 32.6451 42.2182 31.7521 42.1505C30.8592 42.0829 29.9674 42.2967 29.2022 42.7619C28.437 43.2271 27.8367 43.9203 27.4857 44.7442C27.2627 44.4609 27.1419 44.1105 27.1429 43.7499V41.3649C27.1429 40.4006 27.5715 39.5221 28.2572 38.9285H47.7207ZM29.2857 46.4285C29.2857 45.8602 29.5115 45.3151 29.9134 44.9133C30.3152 44.5114 30.8603 44.2856 31.4286 44.2856C31.9969 44.2856 32.542 44.5114 32.9438 44.9133C33.3457 45.3151 33.5715 45.8602 33.5715 46.4285C33.5715 46.9968 33.3457 47.5419 32.9438 47.9437C32.542 48.3456 31.9969 48.5714 31.4286 48.5714C30.8603 48.5714 30.3152 48.3456 29.9134 47.9437C29.5115 47.5419 29.2857 46.9968 29.2857 46.4285ZM48.5715 44.2856C49.1398 44.2856 49.6848 44.5114 50.0867 44.9133C50.4886 45.3151 50.7143 45.8602 50.7143 46.4285C50.7143 46.9968 50.4886 47.5419 50.0867 47.9437C49.6848 48.3456 49.1398 48.5714 48.5715 48.5714C48.0031 48.5714 47.4581 48.3456 47.0562 47.9437C46.6544 47.5419 46.4286 46.9968 46.4286 46.4285C46.4286 45.8602 46.6544 45.3151 47.0562 44.9133C47.4581 44.5114 48.0031 44.2856 48.5715 44.2856Z" fill="#2C76C9"/>
</svg>
